<svg width="216" height="112" viewBox="0 0 216 112" fill="none" xmlns="http://www.w3.org/2000/svg">
<g filter="url(#filter0_i)">
<circle cx="108" cy="56" r="40" fill="white"/>
</g>
<circle cx="108" cy="56" r="40" stroke="black" stroke-width="3"/>
<path d="M122.222 53.1609C119.617 58.7283 114.61 63.1129 108.177 64.6994C101.744 66.2859 95.273 64.7322 90.378 61.0145M119.071 51.0294L125.653 54.6558" stroke="black" stroke-width="3" stroke-linecap="round"/>
<g filter="url(#filter1_i)">
<path d="M136.556 77.9549C139.798 78.3886 142.075 81.3687 141.641 84.611L141.273 87.3616C140.468 93.3831 134.933 97.6114 128.912 96.8059L122.965 96.0104C120.775 95.7174 119.238 93.7049 119.53 91.5153L119.871 88.9719L120.741 82.4639L121.082 79.9205C121.375 77.7308 123.387 76.1933 125.577 76.4862L130.151 77.0981L136.556 77.9549Z" fill="white"/>
</g>
<path d="M127.193 84.8403C128.014 84.9502 128.769 84.3736 128.879 83.5525C128.989 82.7313 128.412 81.9767 127.591 81.8668L127.193 84.8403ZM126.323 91.3484C127.144 91.4582 127.898 90.8816 128.008 90.0605C128.118 89.2394 127.542 88.4847 126.72 88.3749L126.323 91.3484ZM140.154 84.4122L139.786 87.1627L142.76 87.5605L143.128 84.8099L140.154 84.4122ZM129.111 95.3192L123.164 94.5236L122.766 97.4971L128.713 98.2927L129.111 95.3192ZM122.228 82.6627L122.568 80.1194L119.595 79.7216L119.255 82.265L122.228 82.6627ZM120.542 83.9506L127.193 84.8403L127.591 81.8668L120.94 80.9771L120.542 83.9506ZM121.017 91.7142L121.357 89.1708L118.384 88.773L118.044 91.3164L121.017 91.7142ZM121.357 89.1708L122.228 82.6627L119.255 82.265L118.384 88.773L121.357 89.1708ZM119.672 90.4587L126.323 91.3484L126.72 88.3749L120.07 87.4852L119.672 90.4587ZM125.378 77.9729L129.952 78.5849L130.35 75.6114L125.776 74.9994L125.378 77.9729ZM131.555 77.6273L134.04 71.0342L131.233 69.9759L128.748 76.569L131.555 77.6273ZM129.952 78.5849L136.357 79.4417L136.755 76.4681L130.35 75.6114L129.952 78.5849ZM137.124 72.1966L135.152 77.4258L137.959 78.484L139.931 73.2549L137.124 72.1966ZM135.8 69.9825C136.851 70.123 137.498 71.2048 137.124 72.1966L139.931 73.2549C140.986 70.457 139.162 67.4054 136.198 67.009L135.8 69.9825ZM134.04 71.0342C134.311 70.3168 135.041 69.8808 135.8 69.9825L136.198 67.009C134.054 66.7222 131.996 67.9521 131.233 69.9759L134.04 71.0342ZM122.568 80.1194C122.751 78.7508 124.009 77.7899 125.378 77.9729L125.776 74.9994C122.765 74.5967 119.998 76.7108 119.595 79.7216L122.568 80.1194ZM123.164 94.5236C121.795 94.3405 120.834 93.0827 121.017 91.7142L118.044 91.3164C117.641 94.3272 119.755 97.0944 122.766 97.4971L123.164 94.5236ZM139.786 87.1627C139.091 92.3631 134.311 96.0148 129.111 95.3192L128.713 98.2927C135.556 99.208 141.845 94.4031 142.76 87.5605L139.786 87.1627ZM143.128 84.8099C143.672 80.7465 140.818 77.0117 136.755 76.4681L136.357 79.4417C138.778 79.7656 140.478 81.9909 140.154 84.4122L143.128 84.8099Z" fill="black"/>
<path d="M97.8458 44.8289L97.375 43.5846C96.4231 41.0687 93.7345 39.6678 91.1271 40.3293V40.3293C88.2955 41.0476 86.5823 43.9254 87.3006 46.757L87.436 47.2906" stroke="black" stroke-width="3" stroke-linecap="round"/>
<path d="M109.868 42.4952L109.826 41.1655C109.741 38.4768 111.687 36.1524 114.349 35.7639V35.7639C117.24 35.342 119.925 37.3434 120.347 40.2341L120.427 40.7788" stroke="black" stroke-width="3" stroke-linecap="round"/>
<g filter="url(#filter2_i)">
<path fill-rule="evenodd" clip-rule="evenodd" d="M154.937 53.4705C155 53.3252 155.059 53.1769 155.114 53.0256C156.468 49.2688 154.52 45.1259 150.763 43.7721C148.814 43.0697 146.76 43.2561 145.047 44.1228C144.28 42.3631 142.818 40.9106 140.869 40.2084C137.113 38.8546 132.97 40.8026 131.616 44.5594C131.561 44.7127 131.511 44.8666 131.467 45.021C131.392 45.1955 131.318 45.3839 131.245 45.5869C128.907 52.0759 138.24 63.0151 138.24 63.0151C138.24 63.0151 152.406 60.544 154.744 54.055C154.818 53.8492 154.882 53.6545 154.937 53.4705Z" fill="url(#paint0_linear)"/>
<path fill-rule="evenodd" clip-rule="evenodd" d="M154.937 53.4705C155 53.3252 155.059 53.1769 155.114 53.0256C156.468 49.2688 154.52 45.1259 150.763 43.7721C148.814 43.0697 146.76 43.2561 145.047 44.1228C144.28 42.3631 142.818 40.9106 140.869 40.2084C137.113 38.8546 132.97 40.8026 131.616 44.5594C131.561 44.7127 131.511 44.8666 131.467 45.021C131.392 45.1955 131.318 45.3839 131.245 45.5869C128.907 52.0759 138.24 63.0151 138.24 63.0151C138.24 63.0151 152.406 60.544 154.744 54.055C154.818 53.8492 154.882 53.6545 154.937 53.4705Z" fill="#DBAEF8"/>
</g>
<path d="M154.937 53.4705L154.479 53.2707C154.47 53.2895 154.463 53.3088 154.457 53.3285L154.937 53.4705ZM145.047 44.1228L144.589 44.3226C144.643 44.4487 144.748 44.5466 144.877 44.5932C145.007 44.6398 145.15 44.6311 145.273 44.569L145.047 44.1228ZM131.467 45.021L131.926 45.217C131.935 45.1981 131.941 45.1788 131.947 45.159L131.467 45.021ZM138.24 63.0151L137.86 63.3396C137.974 63.4742 138.152 63.5381 138.326 63.5077L138.24 63.0151ZM155.395 53.6703C155.463 53.515 155.526 53.3566 155.584 53.1951L154.643 52.8561C154.593 52.9971 154.538 53.1353 154.479 53.2707L155.395 53.6703ZM155.584 53.1951C157.032 49.1786 154.949 44.7491 150.932 43.3017L150.593 44.2425C154.09 45.5026 155.904 49.3591 154.643 52.8561L155.584 53.1951ZM150.932 43.3017C148.848 42.5507 146.652 42.7504 144.821 43.6766L145.273 44.569C146.868 43.7618 148.779 43.5886 150.593 44.2425L150.932 43.3017ZM145.505 43.923C144.686 42.0424 143.122 40.4887 141.039 39.738L140.7 40.6788C142.514 41.3324 143.874 42.6837 144.589 44.3226L145.505 43.923ZM141.039 39.738C137.022 38.2906 132.593 40.3733 131.145 44.3899L132.086 44.7289C133.346 41.2319 137.203 39.4186 140.7 40.6788L141.039 39.738ZM131.145 44.3899C131.086 44.5535 131.033 44.718 130.986 44.8829L131.947 45.159C131.988 45.0153 132.035 44.8718 132.086 44.7289L131.145 44.3899ZM131.716 45.7564C131.786 45.5613 131.856 45.3818 131.926 45.217L131.007 44.8249C130.928 45.0092 130.851 45.2065 130.775 45.4174L131.716 45.7564ZM138.24 63.0151C138.62 62.6906 138.62 62.6906 138.62 62.6906C138.62 62.6906 138.62 62.6905 138.62 62.6904C138.62 62.6902 138.62 62.6898 138.619 62.6892C138.618 62.6881 138.617 62.6863 138.615 62.6839C138.611 62.679 138.604 62.6716 138.596 62.6616C138.579 62.6415 138.554 62.6113 138.521 62.5714C138.454 62.4916 138.357 62.3729 138.233 62.2191C137.986 61.9115 137.634 61.4638 137.219 60.906C136.389 59.7894 135.307 58.236 134.299 56.485C133.29 54.7312 132.364 52.7953 131.833 50.912C131.3 49.0222 131.181 47.2397 131.716 45.7564L130.775 45.4174C130.14 47.1786 130.311 49.1969 130.87 51.1832C131.432 53.176 132.401 55.1916 133.432 56.9838C134.465 58.7787 135.571 60.3656 136.417 61.5029C136.84 62.072 137.2 62.5297 137.454 62.8457C137.581 63.0037 137.682 63.1264 137.751 63.2099C137.786 63.2517 137.812 63.2837 137.831 63.3055C137.84 63.3164 137.847 63.3247 137.852 63.3304C137.854 63.3333 137.856 63.3355 137.857 63.337C137.858 63.3378 137.859 63.3384 137.859 63.3388C137.859 63.339 137.859 63.3392 137.859 63.3394C137.86 63.3395 137.86 63.3396 138.24 63.0151ZM154.274 53.8855C153.739 55.3687 152.51 56.6655 150.895 57.7811C149.285 58.893 147.337 59.7932 145.44 60.4999C143.547 61.2055 141.723 61.7119 140.371 62.0419C139.696 62.2067 139.14 62.3273 138.753 62.4064C138.56 62.446 138.409 62.4752 138.307 62.4944C138.256 62.5041 138.217 62.5112 138.191 62.5158C138.179 62.5182 138.169 62.5199 138.163 62.521C138.16 62.5216 138.157 62.522 138.156 62.5222C138.155 62.5224 138.155 62.5225 138.154 62.5225C138.154 62.5225 138.154 62.5225 138.154 62.5226C138.154 62.5226 138.154 62.5225 138.24 63.0151C138.326 63.5077 138.326 63.5076 138.326 63.5076C138.326 63.5076 138.327 63.5075 138.327 63.5075C138.328 63.5074 138.328 63.5073 138.329 63.5071C138.331 63.5067 138.334 63.5062 138.338 63.5056C138.345 63.5043 138.356 63.5023 138.37 63.4998C138.398 63.4947 138.439 63.4872 138.492 63.4771C138.599 63.457 138.755 63.4268 138.954 63.3861C139.351 63.3048 139.919 63.1815 140.608 63.0133C141.986 62.6772 143.849 62.1602 145.79 61.4369C147.727 60.7147 149.759 59.7805 151.463 58.604C153.161 57.4313 154.58 55.9857 155.214 54.2245L154.274 53.8855ZM154.457 53.3285C154.406 53.5022 154.345 53.6877 154.274 53.8855L155.214 54.2245C155.291 54.0107 155.359 53.8069 155.416 53.6125L154.457 53.3285Z" fill="black"/>
<g filter="url(#filter3_i)">
<path fill-rule="evenodd" clip-rule="evenodd" d="M162.923 33.8899C162.982 33.8255 163.039 33.7587 163.095 33.6895C164.462 31.9833 164.187 29.4918 162.481 28.1246C161.596 27.4154 160.499 27.148 159.458 27.2931C159.373 26.2455 158.873 25.2339 157.988 24.5248C156.282 23.1576 153.79 23.4324 152.423 25.1386C152.368 25.2072 152.316 25.277 152.266 25.348C152.196 25.4261 152.123 25.5117 152.048 25.6052C149.687 28.5522 152.583 35.8734 152.583 35.8734C152.583 35.8734 160.359 37.1041 162.721 34.1571C162.795 34.0641 162.862 33.9752 162.923 33.8899Z" fill="url(#paint1_linear)"/>
<path fill-rule="evenodd" clip-rule="evenodd" d="M162.923 33.8899C162.982 33.8255 163.039 33.7587 163.095 33.6895C164.462 31.9833 164.187 29.4918 162.481 28.1246C161.596 27.4154 160.499 27.148 159.458 27.2931C159.373 26.2455 158.873 25.2339 157.988 24.5248C156.282 23.1576 153.79 23.4324 152.423 25.1386C152.368 25.2072 152.316 25.277 152.266 25.348C152.196 25.4261 152.123 25.5117 152.048 25.6052C149.687 28.5522 152.583 35.8734 152.583 35.8734C152.583 35.8734 160.359 37.1041 162.721 34.1571C162.795 34.0641 162.862 33.9752 162.923 33.8899Z" fill="#DBAEF8"/>
</g>
<path d="M162.923 33.8899L162.554 33.5523C162.54 33.5675 162.527 33.5835 162.515 33.6002L162.923 33.8899ZM159.458 27.2931L158.96 27.3337C158.971 27.4709 159.038 27.5973 159.146 27.6833C159.253 27.7693 159.391 27.8073 159.527 27.7883L159.458 27.2931ZM152.266 25.348L152.638 25.6827C152.651 25.6674 152.664 25.6514 152.676 25.6346L152.266 25.348ZM152.583 35.8734L152.118 36.0573C152.183 36.2218 152.33 36.3396 152.505 36.3673L152.583 35.8734ZM163.292 34.2275C163.358 34.155 163.423 34.0799 163.485 34.0022L162.705 33.3768C162.656 33.4375 162.606 33.496 162.554 33.5523L163.292 34.2275ZM163.485 34.0022C165.025 32.0805 164.715 29.2743 162.794 27.7344L162.168 28.5148C163.659 29.7093 163.899 31.8861 162.705 33.3768L163.485 34.0022ZM162.794 27.7344C161.797 26.9356 160.561 26.6346 159.389 26.7979L159.527 27.7883C160.438 27.6614 161.395 27.8951 162.168 28.5148L162.794 27.7344ZM159.956 27.2525C159.86 26.0735 159.297 24.9333 158.301 24.1346L157.675 24.915C158.448 25.5346 158.885 26.4175 158.96 27.3337L159.956 27.2525ZM158.301 24.1346C156.379 22.5948 153.573 22.9043 152.033 24.826L152.813 25.4513C154.008 23.9606 156.185 23.7205 157.675 24.915L158.301 24.1346ZM152.033 24.826C151.971 24.903 151.912 24.9815 151.856 25.0613L152.676 25.6346C152.719 25.5725 152.765 25.5114 152.813 25.4513L152.033 24.826ZM152.438 25.9178C152.508 25.831 152.574 25.7528 152.638 25.6827L151.895 25.0132C151.817 25.0993 151.738 25.1924 151.658 25.2925L152.438 25.9178ZM152.583 35.8734C153.048 35.6895 153.048 35.6896 153.048 35.6896C153.048 35.6896 153.048 35.6896 153.048 35.6895C153.048 35.6894 153.048 35.6892 153.047 35.6889C153.047 35.6883 153.047 35.6872 153.046 35.6857C153.045 35.6827 153.043 35.678 153.041 35.6715C153.036 35.6586 153.028 35.639 153.018 35.613C152.998 35.5609 152.969 35.4832 152.933 35.3828C152.86 35.182 152.758 34.8904 152.643 34.5309C152.413 33.8108 152.13 32.8233 151.921 31.7487C151.711 30.6711 151.577 29.5244 151.635 28.4803C151.693 27.4297 151.94 26.5393 152.438 25.9178L151.658 25.2925C150.975 26.1445 150.7 27.2745 150.636 28.4254C150.573 29.583 150.721 30.819 150.939 31.9401C151.158 33.0643 151.452 34.0912 151.691 34.8359C151.81 35.2088 151.916 35.5123 151.993 35.7233C152.031 35.8288 152.062 35.9113 152.083 35.968C152.094 35.9963 152.102 36.0181 152.108 36.0331C152.111 36.0406 152.113 36.0464 152.115 36.0505C152.116 36.0525 152.116 36.0541 152.117 36.0552C152.117 36.0558 152.117 36.0563 152.117 36.0566C152.118 36.0568 152.118 36.057 152.118 36.057C152.118 36.0572 152.118 36.0573 152.583 35.8734ZM162.33 33.8444C161.832 34.4659 161.017 34.9018 160.005 35.1873C158.998 35.4709 157.85 35.5908 156.752 35.6206C155.658 35.6502 154.633 35.5899 153.88 35.5217C153.504 35.4877 153.197 35.4518 152.985 35.4246C152.879 35.411 152.797 35.3996 152.742 35.3916C152.714 35.3877 152.694 35.3845 152.68 35.3825C152.673 35.3814 152.668 35.3807 152.665 35.3802C152.663 35.3799 152.662 35.3798 152.661 35.3796C152.661 35.3796 152.661 35.3796 152.661 35.3795C152.661 35.3795 152.661 35.3795 152.661 35.3795C152.661 35.3795 152.661 35.3796 152.583 35.8734C152.505 36.3673 152.505 36.3673 152.505 36.3673C152.505 36.3673 152.505 36.3673 152.505 36.3674C152.506 36.3674 152.506 36.3675 152.507 36.3676C152.508 36.3678 152.51 36.3681 152.512 36.3684C152.516 36.3691 152.522 36.37 152.53 36.3712C152.546 36.3736 152.569 36.3771 152.599 36.3814C152.659 36.39 152.746 36.4022 152.858 36.4165C153.08 36.445 153.4 36.4823 153.79 36.5176C154.568 36.5881 155.635 36.6512 156.78 36.6202C157.921 36.5892 159.16 36.4643 160.276 36.1498C161.385 35.8371 162.428 35.3218 163.111 34.4697L162.33 33.8444ZM162.515 33.6002C162.461 33.6768 162.4 33.7581 162.33 33.8444L163.111 34.4697C163.19 34.3702 163.264 34.2736 163.331 34.1797L162.515 33.6002Z" fill="black"/>
<g filter="url(#filter4_i)">
<path fill-rule="evenodd" clip-rule="evenodd" d="M170.769 17.5542C170.807 17.5203 170.847 17.4873 170.887 17.4555C171.914 16.6519 173.398 16.8328 174.201 17.8595C174.618 18.392 174.77 19.0476 174.676 19.6674C175.3 19.7255 175.9 20.0305 176.317 20.5629C177.12 21.5896 176.939 23.0733 175.913 23.8768C175.871 23.9096 175.828 23.9407 175.785 23.9702C175.738 24.0112 175.687 24.0533 175.632 24.0968C173.859 25.4848 169.513 23.708 169.513 23.708C169.513 23.708 168.832 19.0629 170.606 17.675C170.663 17.6305 170.717 17.5902 170.769 17.5542Z" fill="url(#paint2_linear)"/>
<path fill-rule="evenodd" clip-rule="evenodd" d="M170.769 17.5542C170.807 17.5203 170.847 17.4873 170.887 17.4555C171.914 16.6519 173.398 16.8328 174.201 17.8595C174.618 18.392 174.77 19.0476 174.676 19.6674C175.3 19.7255 175.9 20.0305 176.317 20.5629C177.12 21.5896 176.939 23.0733 175.913 23.8768C175.871 23.9096 175.828 23.9407 175.785 23.9702C175.738 24.0112 175.687 24.0533 175.632 24.0968C173.859 25.4848 169.513 23.708 169.513 23.708C169.513 23.708 168.832 19.0629 170.606 17.675C170.663 17.6305 170.717 17.5902 170.769 17.5542Z" fill="#DBAEF8"/>
</g>
<path d="M170.769 17.5542L171.054 17.9653C171.071 17.9537 171.087 17.941 171.102 17.9273L170.769 17.5542ZM174.676 19.6674L174.182 19.5927C174.161 19.7287 174.198 19.8672 174.283 19.9755C174.367 20.0838 174.493 20.1525 174.63 20.1652L174.676 19.6674ZM175.785 23.9702L175.504 23.557C175.487 23.5685 175.47 23.5811 175.455 23.5947L175.785 23.9702ZM169.513 23.708L169.018 23.7805C169.044 23.9555 169.16 24.1039 169.324 24.1708L169.513 23.708ZM171.102 17.9273C171.132 17.9005 171.163 17.8745 171.195 17.8492L170.579 17.0617C170.53 17.1002 170.482 17.14 170.436 17.1811L171.102 17.9273ZM171.195 17.8492C172.005 17.2159 173.174 17.3584 173.807 18.1676L174.595 17.5513C173.621 16.3072 171.823 16.088 170.579 17.0617L171.195 17.8492ZM173.807 18.1676C174.136 18.5874 174.256 19.1033 174.182 19.5927L175.171 19.742C175.284 18.9919 175.1 18.1966 174.595 17.5513L173.807 18.1676ZM174.63 20.1652C175.123 20.2111 175.595 20.4514 175.923 20.8711L176.711 20.2548C176.206 19.6095 175.478 19.2399 174.723 19.1695L174.63 20.1652ZM175.923 20.8711C176.556 21.6803 176.414 22.8497 175.605 23.4831L176.221 24.2706C177.465 23.2968 177.684 21.4989 176.711 20.2548L175.923 20.8711ZM175.605 23.4831C175.571 23.509 175.538 23.5337 175.504 23.557L176.067 24.3834C176.119 24.3477 176.17 24.3101 176.221 24.2706L175.605 23.4831ZM175.455 23.5947C175.416 23.6287 175.373 23.6648 175.324 23.7031L175.94 24.4906C176.002 24.4419 176.061 24.3936 176.115 24.3457L175.455 23.5947ZM175.324 23.7031C174.997 23.959 174.513 24.0957 173.906 24.1221C173.306 24.1482 172.641 24.0641 172.009 23.9333C171.379 23.8031 170.801 23.6304 170.378 23.4896C170.167 23.4193 169.996 23.3575 169.879 23.3135C169.82 23.2915 169.775 23.2741 169.745 23.2623C169.73 23.2564 169.719 23.2519 169.712 23.249C169.708 23.2476 169.705 23.2465 169.704 23.2459C169.703 23.2456 169.703 23.2453 169.702 23.2452C169.702 23.2452 169.702 23.2451 169.702 23.2451C169.702 23.2451 169.702 23.2452 169.702 23.2452C169.702 23.2452 169.702 23.2452 169.513 23.708C169.324 24.1708 169.324 24.1709 169.324 24.1709C169.324 24.171 169.324 24.171 169.324 24.1711C169.325 24.1712 169.325 24.1713 169.325 24.1715C169.326 24.1718 169.327 24.1722 169.328 24.1727C169.331 24.1738 169.335 24.1753 169.339 24.1771C169.349 24.1809 169.362 24.1862 169.379 24.193C169.414 24.2066 169.464 24.2259 169.528 24.2498C169.655 24.2976 169.838 24.3637 170.062 24.4383C170.509 24.5873 171.127 24.7721 171.806 24.9125C172.482 25.0524 173.236 25.1522 173.949 25.1212C174.656 25.0904 175.38 24.9286 175.94 24.4906L175.324 23.7031ZM169.513 23.708C170.008 23.6355 170.008 23.6356 170.008 23.6357C170.008 23.6357 170.008 23.6357 170.008 23.6357C170.008 23.6357 170.008 23.6356 170.008 23.6355C170.008 23.6352 170.008 23.6346 170.008 23.6338C170.007 23.6321 170.007 23.6293 170.006 23.6255C170.005 23.6178 170.004 23.6058 170.002 23.5899C169.997 23.5579 169.991 23.5099 169.984 23.4477C169.969 23.3234 169.95 23.1428 169.933 22.9212C169.898 22.4769 169.869 21.8734 169.894 21.2313C169.919 20.586 169.997 19.9204 170.167 19.3443C170.338 18.7618 170.587 18.3247 170.914 18.0687L170.298 17.2813C169.738 17.7193 169.407 18.3833 169.207 19.0621C169.006 19.7473 168.921 20.5032 168.895 21.1927C168.868 21.8853 168.899 22.5299 168.936 22.9999C168.955 23.2355 168.975 23.4286 168.991 23.5637C168.999 23.6313 169.005 23.6844 169.01 23.7212C169.013 23.7396 169.015 23.7539 169.016 23.7638C169.017 23.7688 169.017 23.7727 169.018 23.7755C169.018 23.7769 169.018 23.778 169.018 23.7789C169.018 23.7793 169.018 23.7796 169.018 23.7799C169.018 23.78 169.018 23.7802 169.018 23.7803C169.018 23.7804 169.018 23.7805 169.513 23.708ZM170.914 18.0687C170.964 18.0295 171.011 17.9952 171.054 17.9653L170.485 17.1431C170.424 17.1853 170.361 17.2314 170.298 17.2813L170.914 18.0687Z" fill="black"/>
<g filter="url(#filter5_i)">
<path d="M30.0639 29.4223C34.3015 31.328 39.2769 30.3897 42.5336 27.0756C40.6337 31.3196 41.5663 36.307 44.8755 39.5736C40.8772 37.443 35.9557 38.2262 32.8169 41.4926L32.4058 41.9203L32.6544 41.3812C34.5526 37.2646 33.4953 32.3838 30.0639 29.4223Z" fill="#FF9CBB"/>
</g>
<path d="M30.0639 29.4223C34.3015 31.328 39.2769 30.3897 42.5336 27.0756C40.6337 31.3196 41.5663 36.307 44.8755 39.5736C40.8772 37.443 35.9557 38.2262 32.8169 41.4926L32.4058 41.9203L32.6544 41.3812C34.5526 37.2646 33.4953 32.3838 30.0639 29.4223Z" stroke="black" stroke-linejoin="round"/>
<g filter="url(#filter6_i)">
<path d="M39.1814 60.5528C41.041 63.4686 44.5206 64.9154 47.9003 64.1821C44.9855 66.0481 43.5302 69.5328 44.2564 72.9166C42.6376 69.9586 39.2548 68.4372 35.968 69.1889L35.5375 69.2874L35.9123 69.0533C38.774 67.266 40.1082 63.7966 39.1814 60.5528Z" fill="#8FEEEE"/>
</g>
<path d="M39.1814 60.5528C41.041 63.4686 44.5206 64.9154 47.9003 64.1821C44.9855 66.0481 43.5302 69.5328 44.2564 72.9166C42.6376 69.9586 39.2548 68.4372 35.968 69.1889L35.5375 69.2874L35.9123 69.0533C38.774 67.266 40.1082 63.7966 39.1814 60.5528Z" stroke="black" stroke-linejoin="round"/>
<g filter="url(#filter7_i)">
<circle cx="171" cy="75" r="4" fill="url(#paint3_linear)"/>
<circle cx="171" cy="75" r="4" fill="#FFEAB2"/>
</g>
<circle cx="171" cy="75" r="4" stroke="black" stroke-linejoin="round"/>
<defs>
<filter id="filter0_i" x="66.5" y="14.5" width="83" height="83" filterUnits="userSpaceOnUse" color-interpolation-filters="sRGB">
<feFlood flood-opacity="0" result="BackgroundImageFix"/>
<feBlend mode="normal" in="SourceGraphic" in2="BackgroundImageFix" result="shape"/>
<feColorMatrix in="SourceAlpha" type="matrix" values="0 0 0 0 0 0 0 0 0 0 0 0 0 0 0 0 0 0 127 0" result="hardAlpha"/>
<feOffset dx="-12"/>
<feComposite in2="hardAlpha" operator="arithmetic" k2="-1" k3="1"/>
<feColorMatrix type="matrix" values="0 0 0 0 0.933319 0 0 0 0 0.933319 0 0 0 0 0.933319 0 0 0 1 0"/>
<feBlend mode="normal" in2="shape" result="effect1_innerShadow"/>
</filter>
<filter id="filter1_i" x="117.314" y="65.0504" width="28.0311" height="34.8997" filterUnits="userSpaceOnUse" color-interpolation-filters="sRGB">
<feFlood flood-opacity="0" result="BackgroundImageFix"/>
<feBlend mode="normal" in="SourceGraphic" in2="BackgroundImageFix" result="shape"/>
<feColorMatrix in="SourceAlpha" type="matrix" values="0 0 0 0 0 0 0 0 0 0 0 0 0 0 0 0 0 0 127 0" result="hardAlpha"/>
<feOffset dx="-12"/>
<feComposite in2="hardAlpha" operator="arithmetic" k2="-1" k3="1"/>
<feColorMatrix type="matrix" values="0 0 0 0 0.933319 0 0 0 0 0.933319 0 0 0 0 0.933319 0 0 0 1 0"/>
<feBlend mode="normal" in2="shape" result="effect1_innerShadow"/>
</filter>
<filter id="filter2_i" x="125.851" y="37.1158" width="32.3553" height="30.7733" filterUnits="userSpaceOnUse" color-interpolation-filters="sRGB">
<feFlood flood-opacity="0" result="BackgroundImageFix"/>
<feBlend mode="normal" in="SourceGraphic" in2="BackgroundImageFix" result="shape"/>
<feColorMatrix in="SourceAlpha" type="matrix" values="0 0 0 0 0 0 0 0 0 0 0 0 0 0 0 0 0 0 127 0" result="hardAlpha"/>
<feOffset dx="-4" dy="-1"/>
<feComposite in2="hardAlpha" operator="arithmetic" k2="-1" k3="1"/>
<feColorMatrix type="matrix" values="0 0 0 0 0.733333 0 0 0 0 0.478431 0 0 0 0 0.980392 0 0 0 1 0"/>
<feBlend mode="normal" in2="shape" result="effect1_innerShadow"/>
</filter>
<filter id="filter3_i" x="146.544" y="21.3457" width="19.7297" height="19.5065" filterUnits="userSpaceOnUse" color-interpolation-filters="sRGB">
<feFlood flood-opacity="0" result="BackgroundImageFix"/>
<feBlend mode="normal" in="SourceGraphic" in2="BackgroundImageFix" result="shape"/>
<feColorMatrix in="SourceAlpha" type="matrix" values="0 0 0 0 0 0 0 0 0 0 0 0 0 0 0 0 0 0 127 0" result="hardAlpha"/>
<feOffset dx="-3" dy="-1"/>
<feComposite in2="hardAlpha" operator="arithmetic" k2="-1" k3="1"/>
<feColorMatrix type="matrix" values="0 0 0 0 0.733333 0 0 0 0 0.478431 0 0 0 0 0.980392 0 0 0 1 0"/>
<feBlend mode="normal" in2="shape" result="effect1_innerShadow"/>
</filter>
<filter id="filter4_i" x="168.885" y="16.4537" width="8.43393" height="8.67319" filterUnits="userSpaceOnUse" color-interpolation-filters="sRGB">
<feFlood flood-opacity="0" result="BackgroundImageFix"/>
<feBlend mode="normal" in="SourceGraphic" in2="BackgroundImageFix" result="shape"/>
<feColorMatrix in="SourceAlpha" type="matrix" values="0 0 0 0 0 0 0 0 0 0 0 0 0 0 0 0 0 0 127 0" result="hardAlpha"/>
<feOffset dx="-3" dy="-1"/>
<feComposite in2="hardAlpha" operator="arithmetic" k2="-1" k3="1"/>
<feColorMatrix type="matrix" values="0 0 0 0 0.733333 0 0 0 0 0.478431 0 0 0 0 0.980392 0 0 0 1 0"/>
<feBlend mode="normal" in2="shape" result="effect1_innerShadow"/>
</filter>
<filter id="filter5_i" x="29.7381" y="26.7243" width="15.4878" height="15.6966" filterUnits="userSpaceOnUse" color-interpolation-filters="sRGB">
<feFlood flood-opacity="0" result="BackgroundImageFix"/>
<feBlend mode="normal" in="SourceGraphic" in2="BackgroundImageFix" result="shape"/>
<feColorMatrix in="SourceAlpha" type="matrix" values="0 0 0 0 0 0 0 0 0 0 0 0 0 0 0 0 0 0 127 0" result="hardAlpha"/>
<feOffset dx="-2" dy="1"/>
<feComposite in2="hardAlpha" operator="arithmetic" k2="-1" k3="1"/>
<feColorMatrix type="matrix" values="0 0 0 0 1 0 0 0 0 0.47451 0 0 0 0 0.65098 0 0 0 1 0"/>
<feBlend mode="normal" in2="shape" result="effect1_innerShadow"/>
</filter>
<filter id="filter6_i" x="35.0378" y="60.2831" width="13.1311" height="12.8746" filterUnits="userSpaceOnUse" color-interpolation-filters="sRGB">
<feFlood flood-opacity="0" result="BackgroundImageFix"/>
<feBlend mode="normal" in="SourceGraphic" in2="BackgroundImageFix" result="shape"/>
<feColorMatrix in="SourceAlpha" type="matrix" values="0 0 0 0 0 0 0 0 0 0 0 0 0 0 0 0 0 0 127 0" result="hardAlpha"/>
<feOffset dx="-2" dy="1"/>
<feComposite in2="hardAlpha" operator="arithmetic" k2="-1" k3="1"/>
<feColorMatrix type="matrix" values="0 0 0 0 0.462745 0 0 0 0 0.898039 0 0 0 0 0.866667 0 0 0 1 0"/>
<feBlend mode="normal" in2="shape" result="effect1_innerShadow"/>
</filter>
<filter id="filter7_i" x="166.5" y="70.5" width="9" height="9" filterUnits="userSpaceOnUse" color-interpolation-filters="sRGB">
<feFlood flood-opacity="0" result="BackgroundImageFix"/>
<feBlend mode="normal" in="SourceGraphic" in2="BackgroundImageFix" result="shape"/>
<feColorMatrix in="SourceAlpha" type="matrix" values="0 0 0 0 0 0 0 0 0 0 0 0 0 0 0 0 0 0 127 0" result="hardAlpha"/>
<feOffset dx="-3" dy="-1"/>
<feComposite in2="hardAlpha" operator="arithmetic" k2="-1" k3="1"/>
<feColorMatrix type="matrix" values="0 0 0 0 0.960784 0 0 0 0 0.870588 0 0 0 0 0.596078 0 0 0 1 0"/>
<feBlend mode="normal" in2="shape" result="effect1_innerShadow"/>
</filter>
<linearGradient id="paint0_linear" x1="150.041" y1="67.1066" x2="126.542" y2="58.6385" gradientUnits="userSpaceOnUse">
<stop stop-color="#00FFFD"/>
<stop offset="0.512584" stop-color="#EC00FF"/>
<stop offset="1" stop-color="#FF6700"/>
</linearGradient>
<linearGradient id="paint1_linear" x1="157.971" y1="40.0846" x2="147.298" y2="31.5327" gradientUnits="userSpaceOnUse">
<stop stop-color="#00FFFD"/>
<stop offset="0.512584" stop-color="#EC00FF"/>
<stop offset="1" stop-color="#FF6700"/>
</linearGradient>
<linearGradient id="paint2_linear" x1="172.065" y1="26.8885" x2="167.039" y2="20.4666" gradientUnits="userSpaceOnUse">
<stop stop-color="#00FFFD"/>
<stop offset="0.512584" stop-color="#EC00FF"/>
<stop offset="1" stop-color="#FF6700"/>
</linearGradient>
<linearGradient id="paint3_linear" x1="175" y1="78.9457" x2="167" y2="78.9457" gradientUnits="userSpaceOnUse">
<stop stop-color="#00FFFD"/>
<stop offset="0.512584" stop-color="#EC00FF"/>
<stop offset="1" stop-color="#FF6700"/>
</linearGradient>
</defs>
</svg>
