<svg width="160" height="92" viewBox="0 0 160 92" fill="none" xmlns="http://www.w3.org/2000/svg">
<g clip-path="url(#clip0)">
<g filter="url(#filter0_i)">
<circle cx="80" cy="46" r="40" fill="white"/>
</g>
<circle cx="80" cy="46" r="40" stroke="black" stroke-width="3"/>
<path d="M94.2217 43.1608C91.6166 48.7282 86.6097 53.1128 80.1771 54.6993C73.7444 56.2858 67.2729 54.7321 62.3779 51.0145M91.0712 41.0294L97.6526 44.6558" stroke="black" stroke-width="3" stroke-linecap="round"/>
<g filter="url(#filter1_i)">
<path d="M108.556 67.9549C111.798 68.3886 114.075 71.3687 113.641 74.611L113.273 77.3616C112.468 83.3831 106.934 87.6114 100.912 86.8059L94.965 86.0104C92.7754 85.7174 91.2378 83.7049 91.5307 81.5153L91.871 78.9719L92.7416 72.4639L93.0818 69.9205C93.3747 67.7308 95.3873 66.1933 97.5769 66.4862L102.152 67.0981L108.556 67.9549Z" fill="white"/>
</g>
<path d="M99.1935 74.8403C100.015 74.9502 100.769 74.3736 100.879 73.5525C100.989 72.7313 100.412 71.9767 99.5913 71.8668L99.1935 74.8403ZM98.3229 81.3484C99.144 81.4582 99.8987 80.8816 100.009 80.0605C100.118 79.2394 99.5418 78.4847 98.7207 78.3749L98.3229 81.3484ZM112.155 74.4122L111.787 77.1627L114.76 77.5605L115.128 74.8099L112.155 74.4122ZM101.111 85.3192L95.1639 84.5236L94.7661 87.4971L100.713 88.2927L101.111 85.3192ZM94.2283 72.6627L94.5686 70.1194L91.5951 69.7216L91.2548 72.265L94.2283 72.6627ZM92.5427 73.9506L99.1935 74.8403L99.5913 71.8668L92.9405 70.9771L92.5427 73.9506ZM93.0175 81.7142L93.3577 79.1708L90.3842 78.773L90.044 81.3164L93.0175 81.7142ZM93.3577 79.1708L94.2283 72.6627L91.2548 72.265L90.3842 78.773L93.3577 79.1708ZM91.6721 80.4587L98.3229 81.3484L98.7207 78.3749L92.0699 77.4852L91.6721 80.4587ZM97.378 67.9729L101.953 68.5849L102.35 65.6114L97.7758 64.9994L97.378 67.9729ZM103.555 67.6273L106.041 61.0342L103.234 59.9759L100.748 66.569L103.555 67.6273ZM101.953 68.5849L108.357 69.4417L108.755 66.4681L102.35 65.6114L101.953 68.5849ZM109.124 62.1966L107.152 67.4258L109.96 68.484L111.931 63.2549L109.124 62.1966ZM107.801 59.9825C108.851 60.123 109.498 61.2048 109.124 62.1966L111.931 63.2549C112.986 60.457 111.162 57.4054 108.198 57.009L107.801 59.9825ZM106.041 61.0342C106.311 60.3168 107.041 59.8808 107.801 59.9825L108.198 57.009C106.055 56.7222 103.997 57.9521 103.234 59.9759L106.041 61.0342ZM94.5686 70.1194C94.7517 68.7508 96.0095 67.7899 97.378 67.9729L97.7758 64.9994C94.765 64.5967 91.9978 66.7108 91.5951 69.7216L94.5686 70.1194ZM95.1639 84.5236C93.7954 84.3405 92.8344 83.0827 93.0175 81.7142L90.044 81.3164C89.6412 84.3272 91.7554 87.0944 94.7661 87.4971L95.1639 84.5236ZM111.787 77.1627C111.091 82.3631 106.311 86.0148 101.111 85.3192L100.713 88.2927C107.556 89.208 113.845 84.4031 114.76 77.5605L111.787 77.1627ZM115.128 74.8099C115.672 70.7465 112.818 67.0117 108.755 66.4681L108.357 69.4417C110.778 69.7656 112.479 71.9909 112.155 74.4122L115.128 74.8099Z" fill="black"/>
<path d="M69.8458 34.8289L69.375 33.5846C68.4231 31.0687 65.7345 29.6678 63.1271 30.3293V30.3293C60.2955 31.0476 58.5823 33.9254 59.3006 36.757L59.436 37.2906" stroke="black" stroke-width="3" stroke-linecap="round"/>
<path d="M81.8682 32.4952L81.826 31.1655C81.7408 28.4768 83.6871 26.1524 86.349 25.7639V25.7639C89.2396 25.342 91.925 27.3434 92.3469 30.2341L92.4264 30.7788" stroke="black" stroke-width="3" stroke-linecap="round"/>
<g filter="url(#filter2_i)">
<path fill-rule="evenodd" clip-rule="evenodd" d="M126.937 43.4703C127 43.325 127.059 43.1767 127.114 43.0255C128.468 39.2687 126.52 35.1257 122.763 33.7719C120.814 33.0695 118.761 33.2559 117.047 34.1226C116.28 32.3629 114.818 30.9104 112.869 30.2082C109.113 28.8544 104.97 30.8024 103.616 34.5592C103.561 34.7125 103.511 34.8664 103.467 35.0208C103.392 35.1953 103.318 35.3837 103.245 35.5867C100.907 42.0757 110.24 53.0149 110.24 53.0149C110.24 53.0149 124.406 50.5438 126.744 44.0548C126.818 43.849 126.882 43.6544 126.937 43.4703Z" fill="url(#paint0_linear)"/>
<path fill-rule="evenodd" clip-rule="evenodd" d="M126.937 43.4703C127 43.325 127.059 43.1767 127.114 43.0255C128.468 39.2687 126.52 35.1257 122.763 33.7719C120.814 33.0695 118.761 33.2559 117.047 34.1226C116.28 32.3629 114.818 30.9104 112.869 30.2082C109.113 28.8544 104.97 30.8024 103.616 34.5592C103.561 34.7125 103.511 34.8664 103.467 35.0208C103.392 35.1953 103.318 35.3837 103.245 35.5867C100.907 42.0757 110.24 53.0149 110.24 53.0149C110.24 53.0149 124.406 50.5438 126.744 44.0548C126.818 43.849 126.882 43.6544 126.937 43.4703Z" fill="#DBAEF8"/>
</g>
<path d="M126.937 43.4703L126.479 43.2705C126.47 43.2893 126.463 43.3086 126.458 43.3283L126.937 43.4703ZM117.047 34.1226L116.589 34.3224C116.644 34.4485 116.748 34.5464 116.878 34.593C117.007 34.6397 117.15 34.6309 117.273 34.5688L117.047 34.1226ZM103.467 35.0208L103.927 35.2168C103.935 35.1979 103.941 35.1786 103.947 35.1588L103.467 35.0208ZM110.24 53.0149L109.86 53.3395C109.974 53.474 110.152 53.5379 110.326 53.5075L110.24 53.0149ZM127.395 43.6701C127.463 43.5149 127.526 43.3564 127.584 43.195L126.643 42.8559C126.593 42.9969 126.538 43.1352 126.479 43.2705L127.395 43.6701ZM127.584 43.195C129.032 39.1784 126.949 34.7489 122.932 33.3015L122.593 34.2423C126.09 35.5025 127.904 39.3589 126.643 42.8559L127.584 43.195ZM122.932 33.3015C120.848 32.5505 118.653 32.7502 116.821 33.6764L117.273 34.5688C118.869 33.7616 120.779 33.5884 122.593 34.2423L122.932 33.3015ZM117.505 33.9228C116.686 32.0423 115.122 30.4885 113.039 29.7378L112.7 30.6786C114.514 31.3322 115.874 32.6835 116.589 34.3224L117.505 33.9228ZM113.039 29.7378C109.022 28.2904 104.593 30.3731 103.146 34.3897L104.086 34.7287C105.347 31.2317 109.203 29.4184 112.7 30.6786L113.039 29.7378ZM103.146 34.3897C103.087 34.5534 103.033 34.7178 102.986 34.8827L103.947 35.1588C103.988 35.0151 104.035 34.8716 104.086 34.7287L103.146 34.3897ZM103.716 35.7562C103.786 35.5611 103.856 35.3816 103.927 35.2168L103.007 34.8247C102.928 35.009 102.851 35.2063 102.775 35.4172L103.716 35.7562ZM110.24 53.0149C110.62 52.6904 110.62 52.6904 110.62 52.6904C110.62 52.6904 110.62 52.6903 110.62 52.6902C110.62 52.69 110.62 52.6896 110.619 52.689C110.618 52.6879 110.617 52.6861 110.615 52.6837C110.611 52.6788 110.604 52.6714 110.596 52.6614C110.579 52.6414 110.554 52.6112 110.521 52.5712C110.454 52.4914 110.357 52.3727 110.233 52.2189C109.986 51.9114 109.634 51.4637 109.219 50.9058C108.389 49.7893 107.307 48.2359 106.299 46.4848C105.29 44.731 104.364 42.7951 103.833 40.9118C103.3 39.0221 103.181 37.2395 103.716 35.7562L102.775 35.4172C102.14 37.1784 102.311 39.1967 102.871 41.183C103.432 43.1759 104.401 45.1915 105.432 46.9836C106.466 48.7785 107.571 50.3654 108.417 51.5027C108.841 52.0719 109.2 52.5295 109.454 52.8455C109.581 53.0035 109.682 53.1262 109.751 53.2097C109.786 53.2515 109.812 53.2836 109.831 53.3053C109.84 53.3162 109.847 53.3245 109.852 53.3302C109.854 53.3331 109.856 53.3353 109.857 53.3368C109.858 53.3376 109.859 53.3382 109.859 53.3386C109.859 53.3389 109.859 53.3391 109.859 53.3392C109.86 53.3393 109.86 53.3395 110.24 53.0149ZM126.274 43.8853C125.739 45.3686 124.51 46.6653 122.895 47.7809C121.285 48.8928 119.337 49.793 117.441 50.4997C115.547 51.2054 113.723 51.7117 112.371 52.0417C111.696 52.2065 111.14 52.3271 110.753 52.4062C110.56 52.4458 110.409 52.475 110.307 52.4943C110.256 52.5039 110.217 52.511 110.192 52.5157C110.179 52.518 110.169 52.5197 110.163 52.5208C110.16 52.5214 110.157 52.5218 110.156 52.5221C110.155 52.5222 110.155 52.5223 110.154 52.5223C110.154 52.5224 110.154 52.5224 110.154 52.5224C110.154 52.5224 110.154 52.5224 110.24 53.0149C110.326 53.5075 110.326 53.5075 110.326 53.5074C110.326 53.5074 110.327 53.5074 110.327 53.5073C110.328 53.5072 110.328 53.5071 110.329 53.5069C110.331 53.5065 110.334 53.506 110.338 53.5054C110.345 53.5041 110.356 53.5022 110.37 53.4996C110.398 53.4945 110.439 53.487 110.492 53.4769C110.599 53.4568 110.755 53.4266 110.954 53.3859C111.351 53.3046 111.919 53.1814 112.609 53.0132C113.986 52.677 115.849 52.16 117.79 51.4368C119.727 50.7146 121.759 49.7803 123.463 48.6038C125.161 47.4311 126.58 45.9855 127.215 44.2243L126.274 43.8853ZM126.458 43.3283C126.406 43.5021 126.345 43.6875 126.274 43.8853L127.215 44.2243C127.292 44.0105 127.359 43.8067 127.416 43.6123L126.458 43.3283Z" fill="black"/>
<g filter="url(#filter3_i)">
<path fill-rule="evenodd" clip-rule="evenodd" d="M134.923 23.8899C134.982 23.8255 135.039 23.7587 135.095 23.6895C136.462 21.9833 136.187 19.4918 134.481 18.1246C133.596 17.4154 132.499 17.148 131.458 17.2931C131.373 16.2455 130.873 15.2339 129.988 14.5248C128.282 13.1576 125.79 13.4324 124.423 15.1386C124.368 15.2072 124.316 15.277 124.266 15.348C124.196 15.4261 124.123 15.5117 124.048 15.6052C121.687 18.5522 124.583 25.8734 124.583 25.8734C124.583 25.8734 132.359 27.1041 134.721 24.1571C134.795 24.0641 134.863 23.9752 134.923 23.8899Z" fill="url(#paint1_linear)"/>
<path fill-rule="evenodd" clip-rule="evenodd" d="M134.923 23.8899C134.982 23.8255 135.039 23.7587 135.095 23.6895C136.462 21.9833 136.187 19.4918 134.481 18.1246C133.596 17.4154 132.499 17.148 131.458 17.2931C131.373 16.2455 130.873 15.2339 129.988 14.5248C128.282 13.1576 125.79 13.4324 124.423 15.1386C124.368 15.2072 124.316 15.277 124.266 15.348C124.196 15.4261 124.123 15.5117 124.048 15.6052C121.687 18.5522 124.583 25.8734 124.583 25.8734C124.583 25.8734 132.359 27.1041 134.721 24.1571C134.795 24.0641 134.863 23.9752 134.923 23.8899Z" fill="#DBAEF8"/>
</g>
<path d="M134.923 23.8899L134.554 23.5523C134.54 23.5675 134.528 23.5835 134.516 23.6002L134.923 23.8899ZM131.458 17.2931L130.96 17.3337C130.971 17.4709 131.038 17.5973 131.146 17.6833C131.253 17.7693 131.391 17.8073 131.527 17.7883L131.458 17.2931ZM124.266 15.348L124.638 15.6827C124.651 15.6674 124.664 15.6514 124.676 15.6346L124.266 15.348ZM124.583 25.8734L124.118 26.0573C124.183 26.2218 124.33 26.3396 124.505 26.3673L124.583 25.8734ZM135.292 24.2275C135.358 24.155 135.423 24.0799 135.485 24.0022L134.705 23.3768C134.656 23.4375 134.606 23.496 134.554 23.5523L135.292 24.2275ZM135.485 24.0022C137.025 22.0805 136.715 19.2743 134.794 17.7344L134.168 18.5148C135.659 19.7093 135.899 21.8861 134.705 23.3768L135.485 24.0022ZM134.794 17.7344C133.797 16.9356 132.561 16.6346 131.389 16.7979L131.527 17.7883C132.438 17.6614 133.395 17.8951 134.168 18.5148L134.794 17.7344ZM131.957 17.2525C131.861 16.0735 131.297 14.9333 130.301 14.1346L129.675 14.915C130.449 15.5346 130.885 16.4175 130.96 17.3337L131.957 17.2525ZM130.301 14.1346C128.379 12.5948 125.573 12.9043 124.033 14.826L124.813 15.4513C126.008 13.9606 128.185 13.7205 129.675 14.915L130.301 14.1346ZM124.033 14.826C123.971 14.903 123.912 14.9815 123.857 15.0613L124.676 15.6346C124.719 15.5725 124.765 15.5114 124.813 15.4513L124.033 14.826ZM124.439 15.9178C124.508 15.831 124.575 15.7528 124.638 15.6827L123.895 15.0132C123.817 15.0993 123.738 15.1924 123.658 15.2925L124.439 15.9178ZM124.583 25.8734C125.048 25.6895 125.048 25.6896 125.048 25.6896C125.048 25.6896 125.048 25.6896 125.048 25.6895C125.048 25.6894 125.048 25.6892 125.048 25.6889C125.047 25.6883 125.047 25.6872 125.046 25.6857C125.045 25.6827 125.043 25.678 125.041 25.6715C125.036 25.6586 125.028 25.639 125.018 25.613C124.999 25.5609 124.969 25.4832 124.933 25.3828C124.86 25.182 124.759 24.8904 124.643 24.5309C124.413 23.8108 124.13 22.8233 123.921 21.7487C123.711 20.6711 123.577 19.5244 123.635 18.4803C123.693 17.4297 123.941 16.5393 124.439 15.9178L123.658 15.2925C122.975 16.1445 122.7 17.2745 122.636 18.4254C122.573 19.583 122.721 20.819 122.939 21.9401C123.159 23.0643 123.453 24.0912 123.691 24.8359C123.811 25.2088 123.916 25.5123 123.993 25.7233C124.031 25.8288 124.062 25.9113 124.083 25.968C124.094 25.9963 124.103 26.0181 124.108 26.0331C124.111 26.0406 124.114 26.0464 124.115 26.0505C124.116 26.0525 124.117 26.0541 124.117 26.0552C124.117 26.0558 124.117 26.0563 124.118 26.0566C124.118 26.0568 124.118 26.057 124.118 26.057C124.118 26.0572 124.118 26.0573 124.583 25.8734ZM134.331 23.8444C133.833 24.4659 133.018 24.9018 132.005 25.1873C130.998 25.4709 129.85 25.5908 128.753 25.6206C127.658 25.6502 126.633 25.5899 125.88 25.5217C125.504 25.4877 125.197 25.4518 124.985 25.4246C124.879 25.411 124.797 25.3996 124.742 25.3916C124.715 25.3877 124.694 25.3845 124.68 25.3825C124.673 25.3814 124.668 25.3807 124.665 25.3802C124.663 25.3799 124.662 25.3798 124.662 25.3796C124.661 25.3796 124.661 25.3796 124.661 25.3795C124.661 25.3795 124.661 25.3795 124.661 25.3795C124.661 25.3795 124.661 25.3796 124.583 25.8734C124.505 26.3673 124.505 26.3673 124.505 26.3673C124.505 26.3673 124.505 26.3673 124.505 26.3674C124.506 26.3674 124.506 26.3675 124.507 26.3676C124.508 26.3678 124.51 26.3681 124.512 26.3684C124.516 26.3691 124.522 26.37 124.53 26.3712C124.546 26.3736 124.569 26.3771 124.599 26.3814C124.659 26.39 124.747 26.4022 124.858 26.4165C125.081 26.445 125.4 26.4823 125.79 26.5176C126.568 26.5881 127.635 26.6512 128.78 26.6202C129.922 26.5892 131.16 26.4643 132.276 26.1498C133.385 25.8371 134.428 25.3218 135.111 24.4697L134.331 23.8444ZM134.516 23.6002C134.461 23.6768 134.4 23.7581 134.331 23.8444L135.111 24.4697C135.191 24.3702 135.264 24.2736 135.331 24.1797L134.516 23.6002Z" fill="black"/>
<g filter="url(#filter4_i)">
<path fill-rule="evenodd" clip-rule="evenodd" d="M142.769 7.5542C142.807 7.52027 142.847 7.48733 142.888 7.45546C143.914 6.65192 145.398 6.8328 146.201 7.85947C146.618 8.39204 146.77 9.04758 146.677 9.66737C147.301 9.72549 147.9 10.0305 148.317 10.5629C149.121 11.5896 148.94 13.0733 147.913 13.8768C147.871 13.9096 147.829 13.9407 147.785 13.9702C147.739 14.0112 147.688 14.0533 147.632 14.0968C145.859 15.4848 141.513 13.708 141.513 13.708C141.513 13.708 140.833 9.06294 142.606 7.675C142.663 7.63045 142.717 7.59024 142.769 7.5542Z" fill="url(#paint2_linear)"/>
<path fill-rule="evenodd" clip-rule="evenodd" d="M142.769 7.5542C142.807 7.52027 142.847 7.48733 142.888 7.45546C143.914 6.65192 145.398 6.8328 146.201 7.85947C146.618 8.39204 146.77 9.04758 146.677 9.66737C147.301 9.72549 147.9 10.0305 148.317 10.5629C149.121 11.5896 148.94 13.0733 147.913 13.8768C147.871 13.9096 147.829 13.9407 147.785 13.9702C147.739 14.0112 147.688 14.0533 147.632 14.0968C145.859 15.4848 141.513 13.708 141.513 13.708C141.513 13.708 140.833 9.06294 142.606 7.675C142.663 7.63045 142.717 7.59024 142.769 7.5542Z" fill="#DBAEF8"/>
</g>
<path d="M142.769 7.5542L143.054 7.96534C143.071 7.95368 143.087 7.94099 143.102 7.92734L142.769 7.5542ZM146.677 9.66737L146.182 9.5927C146.162 9.72872 146.198 9.86719 146.283 9.97552C146.368 10.0838 146.493 10.1525 146.63 10.1652L146.677 9.66737ZM147.785 13.9702L147.504 13.557C147.487 13.5685 147.471 13.5811 147.455 13.5947L147.785 13.9702ZM141.513 13.708L141.019 13.7805C141.044 13.9555 141.16 14.1039 141.324 14.1708L141.513 13.708ZM143.102 7.92734C143.132 7.90053 143.163 7.87446 143.196 7.8492L142.579 7.06172C142.53 7.10019 142.483 7.14 142.437 7.18106L143.102 7.92734ZM143.196 7.8492C144.005 7.21586 145.174 7.35843 145.808 8.16764L146.595 7.55131C145.621 6.30718 143.824 6.08798 142.579 7.06172L143.196 7.8492ZM145.808 8.16764C146.136 8.58744 146.256 9.10327 146.182 9.5927L147.171 9.74205C147.284 8.9919 147.1 8.19664 146.595 7.55131L145.808 8.16764ZM146.63 10.1652C147.123 10.2111 147.595 10.4514 147.923 10.8711L148.711 10.2548C148.206 9.60954 147.478 9.23987 146.723 9.16953L146.63 10.1652ZM147.923 10.8711C148.557 11.6803 148.414 12.8497 147.605 13.4831L148.221 14.2706C149.465 13.2968 149.685 11.4989 148.711 10.2548L147.923 10.8711ZM147.605 13.4831C147.572 13.509 147.538 13.5337 147.504 13.557L148.067 14.3834C148.119 14.3477 148.171 14.3101 148.221 14.2706L147.605 13.4831ZM147.455 13.5947C147.417 13.6287 147.373 13.6648 147.324 13.7031L147.94 14.4906C148.002 14.4419 148.061 14.3936 148.115 14.3457L147.455 13.5947ZM147.324 13.7031C146.997 13.959 146.513 14.0957 145.906 14.1221C145.306 14.1482 144.641 14.0641 144.009 13.9333C143.38 13.8031 142.801 13.6304 142.378 13.4896C142.167 13.4193 141.996 13.3575 141.879 13.3135C141.82 13.2915 141.775 13.2741 141.745 13.2623C141.73 13.2564 141.719 13.2519 141.712 13.249C141.708 13.2476 141.706 13.2465 141.704 13.2459C141.703 13.2456 141.703 13.2453 141.703 13.2452C141.702 13.2452 141.702 13.2451 141.702 13.2451C141.702 13.2451 141.702 13.2452 141.702 13.2452C141.702 13.2452 141.703 13.2452 141.513 13.708C141.324 14.1708 141.324 14.1709 141.324 14.1709C141.324 14.171 141.325 14.171 141.325 14.1711C141.325 14.1712 141.325 14.1713 141.326 14.1715C141.326 14.1718 141.327 14.1722 141.329 14.1727C141.331 14.1738 141.335 14.1753 141.34 14.1771C141.349 14.1809 141.362 14.1862 141.38 14.193C141.414 14.2066 141.464 14.2259 141.528 14.2498C141.655 14.2976 141.838 14.3637 142.062 14.4383C142.509 14.5873 143.128 14.7721 143.806 14.9125C144.482 15.0524 145.236 15.1522 145.95 15.1212C146.657 15.0904 147.381 14.9286 147.94 14.4906L147.324 13.7031ZM141.513 13.708C142.008 13.6355 142.008 13.6356 142.008 13.6357C142.008 13.6357 142.008 13.6357 142.008 13.6357C142.008 13.6357 142.008 13.6356 142.008 13.6355C142.008 13.6352 142.008 13.6346 142.008 13.6338C142.008 13.6321 142.007 13.6293 142.007 13.6255C142.006 13.6178 142.004 13.6058 142.002 13.5899C141.998 13.5579 141.991 13.5099 141.984 13.4477C141.97 13.3234 141.951 13.1428 141.933 12.9212C141.898 12.4769 141.869 11.8734 141.894 11.2313C141.919 10.586 141.997 9.92044 142.167 9.34434C142.338 8.76182 142.587 8.32468 142.914 8.06875L142.298 7.28126C141.738 7.7193 141.407 8.38326 141.207 9.06206C141.006 9.74727 140.922 10.5032 140.895 11.1927C140.868 11.8853 140.899 12.5299 140.936 12.9999C140.955 13.2355 140.975 13.4286 140.991 13.5637C140.999 13.6313 141.006 13.6844 141.01 13.7212C141.013 13.7396 141.015 13.7539 141.016 13.7638C141.017 13.7688 141.017 13.7727 141.018 13.7755C141.018 13.7769 141.018 13.778 141.018 13.7789C141.018 13.7793 141.018 13.7796 141.018 13.7799C141.019 13.78 141.019 13.7802 141.019 13.7803C141.019 13.7804 141.019 13.7805 141.513 13.708ZM142.914 8.06875C142.964 8.02949 143.011 7.99518 143.054 7.96534L142.485 7.14306C142.424 7.18531 142.361 7.23142 142.298 7.28126L142.914 8.06875Z" fill="black"/>
<g filter="url(#filter5_i)">
<path d="M2.06389 19.4223C6.30151 21.328 11.2769 20.3897 14.5336 17.0756C12.6337 21.3196 13.5663 26.307 16.8755 29.5736C12.8772 27.443 7.95566 28.2262 4.81687 31.4926L4.40579 31.9203L4.65439 31.3812C6.55256 27.2646 5.49529 22.3838 2.06389 19.4223Z" fill="#FF9CBB"/>
</g>
<path d="M2.06389 19.4223C6.30151 21.328 11.2769 20.3897 14.5336 17.0756C12.6337 21.3196 13.5663 26.307 16.8755 29.5736C12.8772 27.443 7.95566 28.2262 4.81687 31.4926L4.40579 31.9203L4.65439 31.3812C6.55256 27.2646 5.49529 22.3838 2.06389 19.4223Z" stroke="black" stroke-linejoin="round"/>
<g filter="url(#filter6_i)">
<path d="M11.1814 50.5528C13.041 53.4686 16.5206 54.9154 19.9003 54.1821C16.9855 56.0481 15.5302 59.5328 16.2564 62.9166C14.6376 59.9586 11.2548 58.4372 7.96801 59.1889L7.53753 59.2874L7.91233 59.0533C10.774 57.266 12.1082 53.7966 11.1814 50.5528Z" fill="#8FEEEE"/>
</g>
<path d="M11.1814 50.5528C13.041 53.4686 16.5206 54.9154 19.9003 54.1821C16.9855 56.0481 15.5302 59.5328 16.2564 62.9166C14.6376 59.9586 11.2548 58.4372 7.96801 59.1889L7.53753 59.2874L7.91233 59.0533C10.774 57.266 12.1082 53.7966 11.1814 50.5528Z" stroke="black" stroke-linejoin="round"/>
<g filter="url(#filter7_i)">
<circle cx="143" cy="65" r="4" fill="url(#paint3_linear)"/>
<circle cx="143" cy="65" r="4" fill="#FFEAB2"/>
</g>
<circle cx="143" cy="65" r="4" stroke="black" stroke-linejoin="round"/>
</g>
<defs>
<filter id="filter0_i" x="38.5" y="4.5" width="83" height="83" filterUnits="userSpaceOnUse" color-interpolation-filters="sRGB">
<feFlood flood-opacity="0" result="BackgroundImageFix"/>
<feBlend mode="normal" in="SourceGraphic" in2="BackgroundImageFix" result="shape"/>
<feColorMatrix in="SourceAlpha" type="matrix" values="0 0 0 0 0 0 0 0 0 0 0 0 0 0 0 0 0 0 127 0" result="hardAlpha"/>
<feOffset dx="-12"/>
<feComposite in2="hardAlpha" operator="arithmetic" k2="-1" k3="1"/>
<feColorMatrix type="matrix" values="0 0 0 0 0.933319 0 0 0 0 0.933319 0 0 0 0 0.933319 0 0 0 1 0"/>
<feBlend mode="normal" in2="shape" result="effect1_innerShadow"/>
</filter>
<filter id="filter1_i" x="89.9948" y="56.9677" width="25.1998" height="31.4368" filterUnits="userSpaceOnUse" color-interpolation-filters="sRGB">
<feFlood flood-opacity="0" result="BackgroundImageFix"/>
<feBlend mode="normal" in="SourceGraphic" in2="BackgroundImageFix" result="shape"/>
<feColorMatrix in="SourceAlpha" type="matrix" values="0 0 0 0 0 0 0 0 0 0 0 0 0 0 0 0 0 0 127 0" result="hardAlpha"/>
<feOffset dx="-12"/>
<feComposite in2="hardAlpha" operator="arithmetic" k2="-1" k3="1"/>
<feColorMatrix type="matrix" values="0 0 0 0 0.933319 0 0 0 0 0.933319 0 0 0 0 0.933319 0 0 0 1 0"/>
<feBlend mode="normal" in2="shape" result="effect1_innerShadow"/>
</filter>
<filter id="filter2_i" x="102.369" y="29.2779" width="25.6748" height="24.237" filterUnits="userSpaceOnUse" color-interpolation-filters="sRGB">
<feFlood flood-opacity="0" result="BackgroundImageFix"/>
<feBlend mode="normal" in="SourceGraphic" in2="BackgroundImageFix" result="shape"/>
<feColorMatrix in="SourceAlpha" type="matrix" values="0 0 0 0 0 0 0 0 0 0 0 0 0 0 0 0 0 0 127 0" result="hardAlpha"/>
<feOffset dx="-4" dy="-1"/>
<feComposite in2="hardAlpha" operator="arithmetic" k2="-1" k3="1"/>
<feColorMatrix type="matrix" values="0 0 0 0 0.733333 0 0 0 0 0.478431 0 0 0 0 0.980392 0 0 0 1 0"/>
<feBlend mode="normal" in2="shape" result="effect1_innerShadow"/>
</filter>
<filter id="filter3_i" x="122.622" y="13.1552" width="13.843" height="13.4731" filterUnits="userSpaceOnUse" color-interpolation-filters="sRGB">
<feFlood flood-opacity="0" result="BackgroundImageFix"/>
<feBlend mode="normal" in="SourceGraphic" in2="BackgroundImageFix" result="shape"/>
<feColorMatrix in="SourceAlpha" type="matrix" values="0 0 0 0 0 0 0 0 0 0 0 0 0 0 0 0 0 0 127 0" result="hardAlpha"/>
<feOffset dx="-3" dy="-1"/>
<feComposite in2="hardAlpha" operator="arithmetic" k2="-1" k3="1"/>
<feColorMatrix type="matrix" values="0 0 0 0 0.733333 0 0 0 0 0.478431 0 0 0 0 0.980392 0 0 0 1 0"/>
<feBlend mode="normal" in2="shape" result="effect1_innerShadow"/>
</filter>
<filter id="filter4_i" x="140.885" y="6.45367" width="8.43393" height="8.67319" filterUnits="userSpaceOnUse" color-interpolation-filters="sRGB">
<feFlood flood-opacity="0" result="BackgroundImageFix"/>
<feBlend mode="normal" in="SourceGraphic" in2="BackgroundImageFix" result="shape"/>
<feColorMatrix in="SourceAlpha" type="matrix" values="0 0 0 0 0 0 0 0 0 0 0 0 0 0 0 0 0 0 127 0" result="hardAlpha"/>
<feOffset dx="-3" dy="-1"/>
<feComposite in2="hardAlpha" operator="arithmetic" k2="-1" k3="1"/>
<feColorMatrix type="matrix" values="0 0 0 0 0.733333 0 0 0 0 0.478431 0 0 0 0 0.980392 0 0 0 1 0"/>
<feBlend mode="normal" in2="shape" result="effect1_innerShadow"/>
</filter>
<filter id="filter5_i" x="1.73807" y="16.7243" width="15.4878" height="15.6966" filterUnits="userSpaceOnUse" color-interpolation-filters="sRGB">
<feFlood flood-opacity="0" result="BackgroundImageFix"/>
<feBlend mode="normal" in="SourceGraphic" in2="BackgroundImageFix" result="shape"/>
<feColorMatrix in="SourceAlpha" type="matrix" values="0 0 0 0 0 0 0 0 0 0 0 0 0 0 0 0 0 0 127 0" result="hardAlpha"/>
<feOffset dx="-2" dy="1"/>
<feComposite in2="hardAlpha" operator="arithmetic" k2="-1" k3="1"/>
<feColorMatrix type="matrix" values="0 0 0 0 1 0 0 0 0 0.47451 0 0 0 0 0.65098 0 0 0 1 0"/>
<feBlend mode="normal" in2="shape" result="effect1_innerShadow"/>
</filter>
<filter id="filter6_i" x="7.03785" y="50.283" width="13.1311" height="12.8746" filterUnits="userSpaceOnUse" color-interpolation-filters="sRGB">
<feFlood flood-opacity="0" result="BackgroundImageFix"/>
<feBlend mode="normal" in="SourceGraphic" in2="BackgroundImageFix" result="shape"/>
<feColorMatrix in="SourceAlpha" type="matrix" values="0 0 0 0 0 0 0 0 0 0 0 0 0 0 0 0 0 0 127 0" result="hardAlpha"/>
<feOffset dx="-2" dy="1"/>
<feComposite in2="hardAlpha" operator="arithmetic" k2="-1" k3="1"/>
<feColorMatrix type="matrix" values="0 0 0 0 0.462745 0 0 0 0 0.898039 0 0 0 0 0.866667 0 0 0 1 0"/>
<feBlend mode="normal" in2="shape" result="effect1_innerShadow"/>
</filter>
<filter id="filter7_i" x="138.5" y="60.5" width="9" height="9" filterUnits="userSpaceOnUse" color-interpolation-filters="sRGB">
<feFlood flood-opacity="0" result="BackgroundImageFix"/>
<feBlend mode="normal" in="SourceGraphic" in2="BackgroundImageFix" result="shape"/>
<feColorMatrix in="SourceAlpha" type="matrix" values="0 0 0 0 0 0 0 0 0 0 0 0 0 0 0 0 0 0 127 0" result="hardAlpha"/>
<feOffset dx="-3" dy="-1"/>
<feComposite in2="hardAlpha" operator="arithmetic" k2="-1" k3="1"/>
<feColorMatrix type="matrix" values="0 0 0 0 0.960784 0 0 0 0 0.870588 0 0 0 0 0.596078 0 0 0 1 0"/>
<feBlend mode="normal" in2="shape" result="effect1_innerShadow"/>
</filter>
<linearGradient id="paint0_linear" x1="122.041" y1="57.1064" x2="98.5421" y2="48.6383" gradientUnits="userSpaceOnUse">
<stop stop-color="#00FFFD"/>
<stop offset="0.512584" stop-color="#EC00FF"/>
<stop offset="1" stop-color="#FF6700"/>
</linearGradient>
<linearGradient id="paint1_linear" x1="129.971" y1="30.0846" x2="119.299" y2="21.5327" gradientUnits="userSpaceOnUse">
<stop stop-color="#00FFFD"/>
<stop offset="0.512584" stop-color="#EC00FF"/>
<stop offset="1" stop-color="#FF6700"/>
</linearGradient>
<linearGradient id="paint2_linear" x1="144.065" y1="16.8885" x2="139.039" y2="10.4666" gradientUnits="userSpaceOnUse">
<stop stop-color="#00FFFD"/>
<stop offset="0.512584" stop-color="#EC00FF"/>
<stop offset="1" stop-color="#FF6700"/>
</linearGradient>
<linearGradient id="paint3_linear" x1="147" y1="68.9457" x2="139" y2="68.9457" gradientUnits="userSpaceOnUse">
<stop stop-color="#00FFFD"/>
<stop offset="0.512584" stop-color="#EC00FF"/>
<stop offset="1" stop-color="#FF6700"/>
</linearGradient>
<clipPath id="clip0">
<rect width="160" height="92" fill="white"/>
</clipPath>
</defs>
</svg>
