<svg width="160" height="92" viewBox="0 0 160 92" fill="none" xmlns="http://www.w3.org/2000/svg">
<g clip-path="url(#clip0)">
<g filter="url(#filter0_i)">
<circle cx="80" cy="43" r="40" fill="white"/>
</g>
<circle cx="80" cy="43" r="40" stroke="black" stroke-width="3"/>
<g filter="url(#filter1_i)">
<circle cx="5" cy="42" r="4" fill="#8FEEEE"/>
</g>
<circle cx="5" cy="42" r="4" stroke="black" stroke-linejoin="round"/>
<g filter="url(#filter2_i)">
<circle cx="138" cy="72" r="3" fill="#8FEEEE"/>
</g>
<circle cx="138" cy="72" r="3" stroke="black" stroke-linejoin="round"/>
<g filter="url(#filter3_i)">
<path fill-rule="evenodd" clip-rule="evenodd" d="M18.4424 69.8526C18.4015 69.7883 18.3624 69.7221 18.3253 69.6542C17.4155 67.9884 18.0282 65.9005 19.694 64.9906C20.5582 64.5186 21.536 64.4564 22.404 64.7384C22.6358 63.8558 23.2165 63.0667 24.0806 62.5947C25.7464 61.6849 27.8343 62.2976 28.7442 63.9634C28.781 64.0309 28.8154 64.0991 28.8473 64.1679C28.8953 64.2448 28.944 64.3285 28.9934 64.4191C30.565 67.2962 26.9793 73.1149 26.9793 73.1149C26.9793 73.1149 20.1458 72.9874 18.5742 70.1102C18.525 70.02 18.4811 69.9343 18.4424 69.8526Z" fill="url(#paint0_linear)"/>
<path fill-rule="evenodd" clip-rule="evenodd" d="M18.4424 69.8526C18.4015 69.7883 18.3624 69.7221 18.3253 69.6542C17.4155 67.9884 18.0282 65.9005 19.694 64.9906C20.5582 64.5186 21.536 64.4564 22.404 64.7384C22.6358 63.8558 23.2165 63.0667 24.0806 62.5947C25.7464 61.6849 27.8343 62.2976 28.7442 63.9634C28.781 64.0309 28.8154 64.0991 28.8473 64.1679C28.8953 64.2448 28.944 64.3285 28.9934 64.4191C30.565 67.2962 26.9793 73.1149 26.9793 73.1149C26.9793 73.1149 20.1458 72.9874 18.5742 70.1102C18.525 70.02 18.4811 69.9343 18.4424 69.8526Z" fill="#FFEAB2"/>
</g>
<path d="M18.4424 69.8526L18.8942 69.6384C18.8854 69.6198 18.8754 69.6018 18.8644 69.5845L18.4424 69.8526ZM22.404 64.7384L22.2495 65.2139C22.3803 65.2565 22.5229 65.2432 22.6436 65.1772C22.7644 65.1113 22.8526 64.9985 22.8876 64.8654L22.404 64.7384ZM28.8473 64.1679L28.3937 64.3783C28.4024 64.3969 28.4121 64.415 28.423 64.4324L28.8473 64.1679ZM26.9793 73.1149L26.97 73.6148C27.1468 73.6181 27.3122 73.5277 27.405 73.3772L26.9793 73.1149ZM18.8644 69.5845C18.8294 69.5294 18.796 69.4727 18.7641 69.4145L17.8865 69.8939C17.9289 69.9714 17.9736 70.0471 18.0204 70.1208L18.8644 69.5845ZM18.7641 69.4145C17.9867 67.9911 18.5103 66.2069 19.9337 65.4295L19.4543 64.5518C17.5462 65.5941 16.8443 67.9858 17.8865 69.8939L18.7641 69.4145ZM19.9337 65.4295C20.6721 65.0261 21.5069 64.9727 22.2495 65.2139L22.5585 64.2629C21.5651 63.9401 20.4442 64.0112 19.4543 64.5518L19.9337 65.4295ZM22.8876 64.8654C23.0859 64.1103 23.5819 63.4369 24.3203 63.0335L23.8409 62.1559C22.8512 62.6966 22.1857 63.6012 21.9204 64.6114L22.8876 64.8654ZM24.3203 63.0335C25.7437 62.2561 27.5279 62.7797 28.3054 64.2031L29.183 63.7237C28.1407 61.8156 25.749 61.1137 23.8409 62.1559L24.3203 63.0335ZM28.3054 64.2031C28.337 64.261 28.3664 64.3194 28.3937 64.3783L29.3009 63.9575C29.2644 63.8788 29.2251 63.8008 29.183 63.7237L28.3054 64.2031ZM28.423 64.4324C28.4653 64.5003 28.5092 64.5755 28.5546 64.6587L29.4323 64.1794C29.3787 64.0814 29.3253 63.9894 29.2717 63.9034L28.423 64.4324ZM28.5546 64.6587C28.8767 65.2484 28.9545 66.0311 28.8454 66.9314C28.7371 67.8251 28.4513 68.7795 28.1093 69.6659C27.7684 70.5495 27.3784 71.3483 27.0729 71.9274C26.9203 72.2164 26.7895 72.4494 26.6972 72.6095C26.6511 72.6895 26.6146 72.7511 26.59 72.7924C26.5777 72.813 26.5683 72.8285 26.5622 72.8386C26.5591 72.8437 26.5568 72.8474 26.5554 72.8497C26.5547 72.8509 26.5542 72.8517 26.5539 72.8522C26.5538 72.8524 26.5537 72.8526 26.5536 72.8526C26.5536 72.8527 26.5536 72.8526 26.5536 72.8526C26.5536 72.8526 26.5537 72.8525 26.9793 73.1149C27.405 73.3772 27.4051 73.3771 27.4052 73.3769C27.4052 73.3769 27.4053 73.3767 27.4054 73.3766C27.4056 73.3763 27.4058 73.3759 27.4061 73.3754C27.4067 73.3745 27.4075 73.3732 27.4085 73.3715C27.4105 73.3683 27.4133 73.3636 27.417 73.3575C27.4243 73.3455 27.4349 73.3279 27.4485 73.3052C27.4756 73.2598 27.5147 73.1937 27.5635 73.109C27.6612 72.9396 27.7982 72.6955 27.9573 72.3941C28.2749 71.7922 28.6832 70.9566 29.0422 70.0259C29.4002 69.098 29.7161 68.0583 29.8381 67.0517C29.9593 66.0518 29.896 65.0283 29.4323 64.1794L28.5546 64.6587ZM26.9793 73.1149C26.9887 72.6149 26.9887 72.6149 26.9888 72.6149C26.9888 72.6149 26.9888 72.6149 26.9888 72.6149C26.9887 72.6149 26.9885 72.6149 26.9882 72.6149C26.9877 72.6149 26.9867 72.6149 26.9854 72.6149C26.9826 72.6148 26.9783 72.6147 26.9724 72.6146C26.9605 72.6143 26.9424 72.6138 26.9184 72.613C26.8704 72.6114 26.7988 72.6088 26.7066 72.6043C26.5221 72.5955 26.2553 72.5797 25.9297 72.5518C25.2773 72.496 24.3945 72.3924 23.4668 72.2017C22.5361 72.0104 21.5786 71.7352 20.7682 71.3434C19.9517 70.9487 19.3351 70.4602 19.013 69.8706L18.1354 70.3499C18.5991 71.1989 19.4261 71.8053 20.3329 72.2437C21.2458 72.685 22.2913 72.981 23.2655 73.1813C24.2426 73.3821 25.1664 73.4902 25.8444 73.5482C26.184 73.5772 26.4634 73.5938 26.6587 73.6032C26.7564 73.6079 26.8332 73.6107 26.886 73.6125C26.9124 73.6133 26.9329 73.6139 26.947 73.6142C26.9541 73.6144 26.9596 73.6145 26.9634 73.6146C26.9653 73.6147 26.9669 73.6147 26.968 73.6147C26.9685 73.6147 26.969 73.6147 26.9693 73.6148C26.9695 73.6148 26.9697 73.6148 26.9697 73.6148C26.9699 73.6148 26.97 73.6148 26.9793 73.1149ZM19.013 69.8706C18.9678 69.7877 18.9283 69.7104 18.8942 69.6384L17.9906 70.0669C18.0339 70.1581 18.0821 70.2524 18.1354 70.3499L19.013 69.8706Z" fill="black"/>
<g filter="url(#filter4_i)">
<path fill-rule="evenodd" clip-rule="evenodd" d="M151.366 23.5014C151.408 23.4058 151.447 23.3082 151.483 23.2086C152.378 20.7249 151.09 17.9859 148.606 17.0908C147.317 16.6265 145.96 16.7497 144.827 17.3226C144.32 16.1593 143.354 15.1991 142.065 14.7349C139.582 13.8399 136.843 15.1278 135.948 17.6115C135.911 17.7126 135.878 17.8142 135.849 17.9161C135.8 18.0316 135.751 18.1563 135.703 18.2907C134.157 22.5808 140.327 29.813 140.327 29.813C140.327 29.813 149.692 28.1792 151.238 23.8892C151.288 23.7526 151.33 23.6235 151.366 23.5014Z" fill="url(#paint1_linear)"/>
<path fill-rule="evenodd" clip-rule="evenodd" d="M151.366 23.5014C151.408 23.4058 151.447 23.3082 151.483 23.2086C152.378 20.7249 151.09 17.9859 148.606 17.0908C147.317 16.6265 145.96 16.7497 144.827 17.3226C144.32 16.1593 143.354 15.1991 142.065 14.7349C139.582 13.8399 136.843 15.1278 135.948 17.6115C135.911 17.7126 135.878 17.8142 135.849 17.9161C135.8 18.0316 135.751 18.1563 135.703 18.2907C134.157 22.5808 140.327 29.813 140.327 29.813C140.327 29.813 149.692 28.1792 151.238 23.8892C151.288 23.7526 151.33 23.6235 151.366 23.5014Z" fill="#DBAEF8"/>
</g>
<path d="M151.366 23.5014L150.908 23.3018C150.9 23.3206 150.893 23.3399 150.887 23.3595L151.366 23.5014ZM144.827 17.3226L144.369 17.5225C144.424 17.6486 144.528 17.7464 144.658 17.7931C144.787 17.8397 144.93 17.8309 145.053 17.7688L144.827 17.3226ZM135.849 17.9161L136.309 18.1122C136.317 18.0933 136.324 18.0739 136.33 18.0542L135.849 17.9161ZM140.327 29.813L139.947 30.1375C140.061 30.272 140.239 30.3359 140.413 30.3055L140.327 29.813ZM151.825 23.7011C151.871 23.5956 151.913 23.4879 151.953 23.3781L151.012 23.0391C150.98 23.1285 150.945 23.216 150.908 23.3018L151.825 23.7011ZM151.953 23.3781C152.942 20.6346 151.519 17.6091 148.776 16.6204L148.436 17.5612C150.66 18.3626 151.814 20.8152 151.012 23.0391L151.953 23.3781ZM148.776 16.6204C147.352 16.1075 145.852 16.244 144.602 16.8765L145.053 17.7688C146.068 17.2554 147.283 17.1454 148.436 17.5612L148.776 16.6204ZM145.286 17.1228C144.726 15.8387 143.658 14.7773 142.235 14.2645L141.896 15.2053C143.049 15.621 143.914 16.4799 144.369 17.5225L145.286 17.1228ZM142.235 14.2645C139.491 13.2759 136.466 14.6985 135.477 17.442L136.418 17.781C137.219 15.5571 139.672 14.4039 141.896 15.2053L142.235 14.2645ZM135.477 17.442C135.437 17.5535 135.401 17.6656 135.369 17.778L136.33 18.0542C136.356 17.9629 136.385 17.8718 136.418 17.781L135.477 17.442ZM136.173 18.4602C136.219 18.3337 136.264 18.2179 136.309 18.1122L135.389 17.72C135.336 17.8453 135.283 17.9789 135.232 18.1212L136.173 18.4602ZM140.327 29.813C140.707 29.4884 140.707 29.4885 140.707 29.4885C140.707 29.4885 140.707 29.4885 140.707 29.4884C140.707 29.4883 140.707 29.4881 140.707 29.4877C140.706 29.4871 140.705 29.486 140.704 29.4844C140.701 29.4814 140.697 29.4766 140.692 29.4701C140.681 29.4572 140.665 29.4375 140.643 29.4114C140.6 29.3593 140.536 29.2815 140.455 29.1806C140.292 28.9786 140.061 28.6843 139.788 28.3174C139.242 27.5827 138.53 26.5614 137.868 25.4112C137.205 24.2582 136.6 22.9919 136.254 21.7653C135.907 20.5323 135.837 19.3937 136.173 18.4602L135.232 18.1212C134.796 19.3327 134.917 20.7069 135.292 22.0365C135.668 23.3726 136.316 24.7187 137.002 25.91C137.689 27.1041 138.424 28.1589 138.986 28.9144C139.267 29.2925 139.506 29.5967 139.675 29.8071C139.76 29.9123 139.827 29.9941 139.873 30.0499C139.896 30.0779 139.914 30.0994 139.927 30.1141C139.933 30.1214 139.938 30.1271 139.941 30.131C139.943 30.1329 139.944 30.1345 139.945 30.1355C139.945 30.1361 139.946 30.1365 139.946 30.1368C139.946 30.137 139.946 30.1372 139.946 30.1373C139.947 30.1374 139.947 30.1375 140.327 29.813ZM150.768 23.7197C150.432 24.6532 149.651 25.4853 148.597 26.2132C147.548 26.9373 146.275 27.5267 145.028 27.9913C143.785 28.4549 142.586 28.7878 141.696 29.0049C141.252 29.1134 140.886 29.1926 140.632 29.2445C140.505 29.2705 140.406 29.2897 140.34 29.3022C140.307 29.3085 140.281 29.3132 140.265 29.3162C140.256 29.3177 140.25 29.3188 140.246 29.3195C140.244 29.3198 140.243 29.3201 140.242 29.3202C140.242 29.3203 140.241 29.3204 140.241 29.3204C140.241 29.3204 140.241 29.3204 140.241 29.3204C140.241 29.3204 140.241 29.3204 140.327 29.813C140.413 30.3055 140.413 30.3055 140.413 30.3055C140.413 30.3055 140.414 30.3054 140.414 30.3054C140.414 30.3053 140.415 30.3052 140.415 30.3051C140.417 30.3048 140.419 30.3045 140.421 30.304C140.426 30.3031 140.434 30.3018 140.443 30.3001C140.462 30.2967 140.49 30.2916 140.525 30.2849C140.597 30.2714 140.701 30.2513 140.833 30.2242C141.097 30.1701 141.475 30.0882 141.933 29.9764C142.848 29.7531 144.087 29.4095 145.378 28.9284C146.666 28.4483 148.023 27.8248 149.165 27.0361C150.302 26.2511 151.272 25.2702 151.709 24.0587L150.768 23.7197ZM150.887 23.3595C150.854 23.4713 150.814 23.5911 150.768 23.7197L151.709 24.0587C151.761 23.9141 151.806 23.7758 151.846 23.6433L150.887 23.3595Z" fill="black"/>
<g filter="url(#filter5_i)">
<path d="M27.7432 7.9886C26.2333 11.2764 26.9333 15.1561 29.4936 17.7123C26.2008 16.2069 22.3118 16.9023 19.7479 19.4588C21.4315 16.3587 20.852 12.5219 18.328 10.0578L17.9975 9.73508L18.4157 9.93197C21.6094 11.4353 25.4162 10.6421 27.7432 7.9886Z" fill="#FFFCF3"/>
</g>
<path d="M27.7432 7.9886C26.2333 11.2764 26.9333 15.1561 29.4936 17.7123C26.2008 16.2069 22.3118 16.9023 19.7479 19.4588C21.4315 16.3587 20.852 12.5219 18.328 10.0578L17.9975 9.73508L18.4157 9.93197C21.6094 11.4353 25.4162 10.6421 27.7432 7.9886Z" stroke="black" stroke-linejoin="round"/>
<g filter="url(#filter6_i)">
<path d="M144.28 51.8077C147.025 53.042 150.247 52.4342 152.357 50.2877C151.126 53.0366 151.73 56.267 153.874 58.3827C151.284 57.0028 148.096 57.51 146.063 59.6257L145.797 59.9028L145.958 59.5535C147.187 56.8872 146.502 53.7259 144.28 51.8077Z" fill="#FFFCF3"/>
</g>
<path d="M144.28 51.8077C147.025 53.042 150.247 52.4342 152.357 50.2877C151.126 53.0366 151.73 56.267 153.874 58.3827C151.284 57.0028 148.096 57.51 146.063 59.6257L145.797 59.9028L145.958 59.5535C147.187 56.8872 146.502 53.7259 144.28 51.8077Z" stroke="black" stroke-linejoin="round"/>
<path d="M55 23.1196C58.9919 23.655 66.3406 22.6225 66.8313 24.2471C67.4095 26.1616 60.3294 30.3892 57.6021 31.7353" stroke="black" stroke-width="3" stroke-linecap="round" stroke-linejoin="round"/>
<path d="M88.6626 13C85.6344 15.6556 78.9428 18.8636 79.4335 20.4882C80.0117 22.4028 88.2483 22.0044 91.2647 21.6156" stroke="black" stroke-width="3" stroke-linecap="round" stroke-linejoin="round"/>
<path d="M66 36.7607L87.6511 29.0001L90.2073 36.1313C92.3503 42.1101 89.2409 48.6942 83.2621 50.8373C77.2833 52.9803 70.6992 49.8708 68.5562 43.892L66 36.7607Z" fill="#FFCDDE" stroke="black" stroke-width="3" stroke-linecap="round" stroke-linejoin="round"/>
<path d="M67.4126 88.1405C63.2899 90.3534 58.1539 88.8051 55.9411 84.6824L52.6035 78.4642C50.3911 74.3423 51.9391 69.2072 56.061 66.9948C58.136 65.8811 60.721 66.9208 61.54 69.1288C62.3641 71.3505 63.435 74.0093 64.4998 75.9998C65.5865 78.0312 67.245 80.4472 68.664 82.3954C70.0502 84.2988 69.4872 87.027 67.4126 88.1405Z" fill="white" stroke="black" stroke-width="3" stroke-linecap="round" stroke-linejoin="round"/>
<g filter="url(#filter7_i)">
<path fill-rule="evenodd" clip-rule="evenodd" d="M94.0887 76.7879C94.1755 76.5959 94.2565 76.3997 94.3314 76.1995C96.1521 71.3333 93.6832 65.9124 88.8169 64.0918C86.2921 63.1471 83.618 63.3572 81.3749 64.4578C80.4049 62.1558 78.5257 60.2425 76.0014 59.2981C71.1351 57.4774 65.7143 59.9463 63.8937 64.8126C63.8202 65.0089 63.7538 65.206 63.6942 65.4038C63.5936 65.6317 63.4937 65.878 63.3943 66.1437C60.2495 74.549 72.2191 88.9285 72.2191 88.9285C72.2191 88.9285 90.6879 85.9373 93.8327 77.532C93.9306 77.2704 94.0157 77.0226 94.0887 76.7879Z" fill="url(#paint2_linear)"/>
<path fill-rule="evenodd" clip-rule="evenodd" d="M94.0887 76.7879C94.1755 76.5959 94.2565 76.3997 94.3314 76.1995C96.1521 71.3333 93.6832 65.9124 88.8169 64.0918C86.2921 63.1471 83.618 63.3572 81.3749 64.4578C80.4049 62.1558 78.5257 60.2425 76.0014 59.2981C71.1351 57.4774 65.7143 59.9463 63.8937 64.8126C63.8202 65.0089 63.7538 65.206 63.6942 65.4038C63.5936 65.6317 63.4937 65.878 63.3943 66.1437C60.2495 74.549 72.2191 88.9285 72.2191 88.9285C72.2191 88.9285 90.6879 85.9373 93.8327 77.532C93.9306 77.2704 94.0157 77.0226 94.0887 76.7879Z" fill="#FF9CBB"/>
</g>
<path d="M94.0887 76.7879L92.7219 76.1698C92.6965 76.226 92.6746 76.2838 92.6563 76.3427L94.0887 76.7879ZM81.3749 64.4578L79.9926 65.0402C80.1529 65.4206 80.4628 65.7181 80.8494 65.8627C81.236 66.0073 81.6651 65.9862 82.0356 65.8044L81.3749 64.4578ZM63.6942 65.4038L65.0664 66.0096C65.0913 65.9533 65.1126 65.8955 65.1304 65.8366L63.6942 65.4038ZM72.2191 88.9285L71.0663 89.8881C71.4057 90.2959 71.9352 90.494 72.4589 90.4092L72.2191 88.9285ZM95.4554 77.406C95.556 77.1836 95.6497 76.9566 95.7363 76.7251L92.9265 75.6739C92.8633 75.8429 92.795 76.0082 92.7219 76.1698L95.4554 77.406ZM95.7363 76.7251C97.8473 71.083 94.9847 64.7978 89.3425 62.6869L88.2913 65.4967C92.3816 67.027 94.4569 71.5835 92.9265 75.6739L95.7363 76.7251ZM89.3425 62.6869C86.4153 61.5917 83.3124 61.8363 80.7142 63.1111L82.0356 65.8044C83.9236 64.8781 86.1689 64.7026 88.2913 65.4967L89.3425 62.6869ZM82.7572 63.8753C81.6336 61.2088 79.4537 58.9882 76.527 57.8932L75.4758 60.703C77.5977 61.4969 79.1762 63.1027 79.9926 65.0402L82.7572 63.8753ZM76.527 57.8932C70.8849 55.7822 64.5997 58.6448 62.4888 64.287L65.2985 65.3382C66.8289 61.2479 71.3854 59.1726 75.4758 60.703L76.527 57.8932ZM62.4888 64.287C62.4039 64.5139 62.327 64.742 62.258 64.9711L65.1304 65.8366C65.1806 65.67 65.2366 65.5039 65.2985 65.3382L62.4888 64.287ZM64.7992 66.6693C64.8897 66.4274 64.9788 66.208 65.0664 66.0096L62.3219 64.7981C62.2084 65.0553 62.0977 65.3286 61.9894 65.6181L64.7992 66.6693ZM72.2191 88.9285C73.372 87.9688 73.3721 87.969 73.3722 87.9691C73.3722 87.9691 73.3723 87.9692 73.3722 87.9691C73.3721 87.969 73.3718 87.9687 73.3714 87.9681C73.3704 87.967 73.3688 87.965 73.3665 87.9622C73.3618 87.9565 73.3543 87.9475 73.3441 87.9351C73.3238 87.9103 73.2926 87.8721 73.2514 87.8213C73.1691 87.7196 73.0469 87.567 72.8914 87.3687C72.5802 86.9718 72.1364 86.3923 71.6122 85.6697C70.562 84.2216 69.1991 82.2123 67.9364 79.9556C66.6692 77.6909 65.5307 75.2258 64.895 72.8605C64.2542 70.4758 64.1683 68.3556 64.7992 66.6693L61.9894 65.6181C61.0479 68.1345 61.2788 70.9636 61.9978 73.6391C62.722 76.3339 63.9862 79.0397 65.3184 81.4205C66.655 83.8094 68.088 85.9203 69.1838 87.4311C69.7326 88.1878 70.1994 88.7974 70.5305 89.2197C70.6961 89.431 70.828 89.5956 70.9195 89.7086C70.9652 89.7651 71.0009 89.8088 71.0256 89.8389C71.038 89.854 71.0476 89.8656 71.0544 89.8739C71.0578 89.878 71.0605 89.8812 71.0625 89.8836C71.0635 89.8848 71.0643 89.8858 71.0649 89.8865C71.0652 89.8869 71.0656 89.8873 71.0657 89.8875C71.066 89.8879 71.0663 89.8881 72.2191 88.9285ZM92.4278 77.0064C91.7969 78.6926 90.3403 80.2358 88.2915 81.6141C86.2594 82.9813 83.7824 84.0937 81.3398 84.9704C78.906 85.8441 76.5589 86.4653 74.816 86.8684C73.9463 87.0695 73.2311 87.2153 72.7358 87.3105C72.4883 87.358 72.296 87.3929 72.1671 87.4156C72.1027 87.4269 72.0541 87.4352 72.0225 87.4406C72.0067 87.4433 71.9951 87.4452 71.9878 87.4464C71.9842 87.447 71.9817 87.4474 71.9802 87.4476C71.9795 87.4477 71.9791 87.4478 71.9789 87.4478C71.9789 87.4479 71.979 87.4478 71.9789 87.4478C71.9791 87.4478 71.9793 87.4478 72.2191 88.9285C72.4589 90.4092 72.4593 90.4091 72.4597 90.4091C72.46 90.409 72.4605 90.4089 72.461 90.4089C72.462 90.4087 72.4632 90.4085 72.4647 90.4083C72.4678 90.4078 72.4719 90.4071 72.4772 90.4062C72.4878 90.4045 72.5027 90.402 72.5219 90.3987C72.5603 90.3922 72.6159 90.3827 72.6875 90.3701C72.8307 90.3449 73.0382 90.3073 73.3019 90.2566C73.8289 90.1553 74.5811 90.0018 75.492 89.7912C77.3103 89.3707 79.7769 88.7189 82.3534 87.794C84.9211 86.8723 87.6509 85.6609 89.9662 84.1032C92.2647 82.5568 94.2961 80.5741 95.2376 78.0576L92.4278 77.0064ZM92.6563 76.3427C92.5927 76.5473 92.5169 76.7682 92.4278 77.0064L95.2376 78.0576C95.3442 77.7726 95.4388 77.4978 95.5211 77.2331L92.6563 76.3427Z" fill="black"/>
<path d="M72.8946 64.4101C71.6713 64.7486 69.1891 66.4298 69.0471 70.4472" stroke="white" stroke-width="3" stroke-linecap="round" stroke-linejoin="round"/>
<path d="M100.723 66.37C105.315 67.668 107.986 72.4429 106.688 77.0351L104.858 83.5076C103.562 88.0959 98.7907 90.7641 94.2025 89.4672C91.9747 88.8375 90.8031 86.3925 91.6468 84.2366C92.4714 82.1294 93.4194 79.5678 94.0193 77.5C94.7116 75.1137 95.346 71.9873 95.8036 69.4817C96.2192 67.2062 98.4973 65.7409 100.723 66.37Z" fill="white" stroke="black" stroke-width="3" stroke-linecap="round" stroke-linejoin="round"/>
</g>
<defs>
<filter id="filter0_i" x="38.5" y="1.5" width="83" height="83" filterUnits="userSpaceOnUse" color-interpolation-filters="sRGB">
<feFlood flood-opacity="0" result="BackgroundImageFix"/>
<feBlend mode="normal" in="SourceGraphic" in2="BackgroundImageFix" result="shape"/>
<feColorMatrix in="SourceAlpha" type="matrix" values="0 0 0 0 0 0 0 0 0 0 0 0 0 0 0 0 0 0 127 0" result="hardAlpha"/>
<feOffset dx="-12"/>
<feComposite in2="hardAlpha" operator="arithmetic" k2="-1" k3="1"/>
<feColorMatrix type="matrix" values="0 0 0 0 0.933319 0 0 0 0 0.933319 0 0 0 0 0.933319 0 0 0 1 0"/>
<feBlend mode="normal" in2="shape" result="effect1_innerShadow"/>
</filter>
<filter id="filter1_i" x="0.5" y="37.5" width="9" height="9" filterUnits="userSpaceOnUse" color-interpolation-filters="sRGB">
<feFlood flood-opacity="0" result="BackgroundImageFix"/>
<feBlend mode="normal" in="SourceGraphic" in2="BackgroundImageFix" result="shape"/>
<feColorMatrix in="SourceAlpha" type="matrix" values="0 0 0 0 0 0 0 0 0 0 0 0 0 0 0 0 0 0 127 0" result="hardAlpha"/>
<feOffset dx="-3" dy="-1"/>
<feComposite in2="hardAlpha" operator="arithmetic" k2="-1" k3="1"/>
<feColorMatrix type="matrix" values="0 0 0 0 0.462745 0 0 0 0 0.898039 0 0 0 0 0.866667 0 0 0 1 0"/>
<feBlend mode="normal" in2="shape" result="effect1_innerShadow"/>
</filter>
<filter id="filter2_i" x="134.5" y="68.5" width="7" height="7" filterUnits="userSpaceOnUse" color-interpolation-filters="sRGB">
<feFlood flood-opacity="0" result="BackgroundImageFix"/>
<feBlend mode="normal" in="SourceGraphic" in2="BackgroundImageFix" result="shape"/>
<feColorMatrix in="SourceAlpha" type="matrix" values="0 0 0 0 0 0 0 0 0 0 0 0 0 0 0 0 0 0 127 0" result="hardAlpha"/>
<feOffset dx="-3" dy="-1"/>
<feComposite in2="hardAlpha" operator="arithmetic" k2="-1" k3="1"/>
<feColorMatrix type="matrix" values="0 0 0 0 0.462745 0 0 0 0 0.898039 0 0 0 0 0.866667 0 0 0 1 0"/>
<feBlend mode="normal" in2="shape" result="effect1_innerShadow"/>
</filter>
<filter id="filter3_i" x="17.4038" y="61.6734" width="12.4878" height="11.9415" filterUnits="userSpaceOnUse" color-interpolation-filters="sRGB">
<feFlood flood-opacity="0" result="BackgroundImageFix"/>
<feBlend mode="normal" in="SourceGraphic" in2="BackgroundImageFix" result="shape"/>
<feColorMatrix in="SourceAlpha" type="matrix" values="0 0 0 0 0 0 0 0 0 0 0 0 0 0 0 0 0 0 127 0" result="hardAlpha"/>
<feOffset dx="-3" dy="-1"/>
<feComposite in2="hardAlpha" operator="arithmetic" k2="-1" k3="1"/>
<feColorMatrix type="matrix" values="0 0 0 0 0.960784 0 0 0 0 0.870588 0 0 0 0 0.596078 0 0 0 1 0"/>
<feBlend mode="normal" in2="shape" result="effect1_innerShadow"/>
</filter>
<filter id="filter4_i" x="134.954" y="13.9504" width="17.3131" height="16.3626" filterUnits="userSpaceOnUse" color-interpolation-filters="sRGB">
<feFlood flood-opacity="0" result="BackgroundImageFix"/>
<feBlend mode="normal" in="SourceGraphic" in2="BackgroundImageFix" result="shape"/>
<feColorMatrix in="SourceAlpha" type="matrix" values="0 0 0 0 0 0 0 0 0 0 0 0 0 0 0 0 0 0 127 0" result="hardAlpha"/>
<feOffset dx="-3" dy="-1"/>
<feComposite in2="hardAlpha" operator="arithmetic" k2="-1" k3="1"/>
<feColorMatrix type="matrix" values="0 0 0 0 0.733333 0 0 0 0 0.478431 0 0 0 0 0.980392 0 0 0 1 0"/>
<feBlend mode="normal" in2="shape" result="effect1_innerShadow"/>
</filter>
<filter id="filter5_i" x="17.4971" y="7.65979" width="12.3507" height="12.1522" filterUnits="userSpaceOnUse" color-interpolation-filters="sRGB">
<feFlood flood-opacity="0" result="BackgroundImageFix"/>
<feBlend mode="normal" in="SourceGraphic" in2="BackgroundImageFix" result="shape"/>
<feColorMatrix in="SourceAlpha" type="matrix" values="0 0 0 0 0 0 0 0 0 0 0 0 0 0 0 0 0 0 127 0" result="hardAlpha"/>
<feOffset dx="-3" dy="-1"/>
<feComposite in2="hardAlpha" operator="arithmetic" k2="-1" k3="1"/>
<feColorMatrix type="matrix" values="0 0 0 0 1 0 0 0 0 0.917647 0 0 0 0 0.698039 0 0 0 1 0"/>
<feBlend mode="normal" in2="shape" result="effect1_innerShadow"/>
</filter>
<filter id="filter6_i" x="143.954" y="49.9364" width="10.2698" height="10.4669" filterUnits="userSpaceOnUse" color-interpolation-filters="sRGB">
<feFlood flood-opacity="0" result="BackgroundImageFix"/>
<feBlend mode="normal" in="SourceGraphic" in2="BackgroundImageFix" result="shape"/>
<feColorMatrix in="SourceAlpha" type="matrix" values="0 0 0 0 0 0 0 0 0 0 0 0 0 0 0 0 0 0 127 0" result="hardAlpha"/>
<feOffset dx="-2" dy="1"/>
<feComposite in2="hardAlpha" operator="arithmetic" k2="-1" k3="1"/>
<feColorMatrix type="matrix" values="0 0 0 0 1 0 0 0 0 0.917647 0 0 0 0 0.698039 0 0 0 1 0"/>
<feBlend mode="normal" in2="shape" result="effect1_innerShadow"/>
</filter>
<filter id="filter7_i" x="61.3677" y="57.1986" width="35.0632" height="33.2299" filterUnits="userSpaceOnUse" color-interpolation-filters="sRGB">
<feFlood flood-opacity="0" result="BackgroundImageFix"/>
<feBlend mode="normal" in="SourceGraphic" in2="BackgroundImageFix" result="shape"/>
<feColorMatrix in="SourceAlpha" type="matrix" values="0 0 0 0 0 0 0 0 0 0 0 0 0 0 0 0 0 0 127 0" result="hardAlpha"/>
<feOffset dx="-3" dy="-4"/>
<feComposite in2="hardAlpha" operator="arithmetic" k2="-1" k3="1"/>
<feColorMatrix type="matrix" values="0 0 0 0 1 0 0 0 0 0.47451 0 0 0 0 0.65098 0 0 0 1 0"/>
<feBlend mode="normal" in2="shape" result="effect1_innerShadow"/>
</filter>
<linearGradient id="paint0_linear" x1="32.1544" y1="70.206" x2="21.7352" y2="75.8972" gradientUnits="userSpaceOnUse">
<stop stop-color="#00FFFD"/>
<stop offset="0.512584" stop-color="#EC00FF"/>
<stop offset="1" stop-color="#FF6700"/>
</linearGradient>
<linearGradient id="paint1_linear" x1="148.129" y1="32.518" x2="132.593" y2="26.9195" gradientUnits="userSpaceOnUse">
<stop stop-color="#00FFFD"/>
<stop offset="0.512584" stop-color="#EC00FF"/>
<stop offset="1" stop-color="#FF6700"/>
</linearGradient>
<linearGradient id="paint2_linear" x1="87.5076" y1="94.438" x2="57.069" y2="83.0496" gradientUnits="userSpaceOnUse">
<stop stop-color="#00FFFD"/>
<stop offset="0.512584" stop-color="#EC00FF"/>
<stop offset="1" stop-color="#FF6700"/>
</linearGradient>
<clipPath id="clip0">
<rect width="160" height="92" fill="white"/>
</clipPath>
</defs>
</svg>
